G04 EAGLE Gerber RS-274X export*
G75*
%MOMM*%
%FSLAX34Y34*%
%LPD*%
%INTop_Copper*%
%IPPOS*%
%AMOC8*
5,1,8,0,0,1.08239X$1,22.5*%
G01*
%ADD10C,0.000000*%
%ADD11C,1.700000*%
%ADD12R,0.900000X0.800000*%
%ADD13R,1.500000X1.300000*%
%ADD14C,0.304800*%
%ADD15C,1.006400*%

G36*
X131278Y4080D02*
X131278Y4080D01*
X131366Y4090D01*
X131388Y4100D01*
X131411Y4104D01*
X131488Y4150D01*
X131567Y4189D01*
X131584Y4206D01*
X131604Y4219D01*
X131660Y4288D01*
X131721Y4352D01*
X131731Y4374D01*
X131746Y4393D01*
X131774Y4477D01*
X131809Y4559D01*
X131810Y4583D01*
X131817Y4605D01*
X131815Y4694D01*
X131819Y4783D01*
X131811Y4806D01*
X131811Y4830D01*
X131777Y4912D01*
X131750Y4997D01*
X131734Y5018D01*
X131727Y5037D01*
X131693Y5075D01*
X131639Y5147D01*
X131279Y5507D01*
X130257Y6913D01*
X129468Y8462D01*
X128931Y10115D01*
X128723Y11431D01*
X139065Y11431D01*
X139130Y11442D01*
X139195Y11444D01*
X139239Y11462D01*
X139286Y11470D01*
X139342Y11504D01*
X139403Y11529D01*
X139438Y11560D01*
X139479Y11585D01*
X139520Y11636D01*
X139569Y11680D01*
X139591Y11722D01*
X139620Y11759D01*
X139641Y11821D01*
X139671Y11880D01*
X139680Y11934D01*
X139692Y11971D01*
X139691Y12011D01*
X139699Y12065D01*
X139699Y12701D01*
X140335Y12701D01*
X140400Y12713D01*
X140465Y12714D01*
X140509Y12732D01*
X140556Y12741D01*
X140613Y12774D01*
X140673Y12799D01*
X140708Y12831D01*
X140749Y12855D01*
X140790Y12906D01*
X140839Y12950D01*
X140861Y12992D01*
X140890Y13029D01*
X140911Y13091D01*
X140942Y13150D01*
X140950Y13204D01*
X140962Y13241D01*
X140961Y13281D01*
X140969Y13335D01*
X140969Y23677D01*
X142285Y23469D01*
X143938Y22932D01*
X145487Y22143D01*
X146893Y21121D01*
X147253Y20761D01*
X147326Y20711D01*
X147395Y20654D01*
X147417Y20647D01*
X147437Y20633D01*
X147523Y20611D01*
X147607Y20583D01*
X147631Y20583D01*
X147654Y20577D01*
X147743Y20587D01*
X147832Y20589D01*
X147853Y20598D01*
X147877Y20601D01*
X147957Y20640D01*
X148039Y20673D01*
X148057Y20689D01*
X148078Y20700D01*
X148139Y20765D01*
X148205Y20825D01*
X148216Y20846D01*
X148232Y20863D01*
X148267Y20945D01*
X148308Y21024D01*
X148311Y21051D01*
X148320Y21070D01*
X148322Y21120D01*
X148335Y21210D01*
X148335Y31386D01*
X148322Y31461D01*
X148322Y31468D01*
X148320Y31473D01*
X148319Y31474D01*
X148310Y31562D01*
X148300Y31584D01*
X148296Y31607D01*
X148250Y31684D01*
X148211Y31763D01*
X148194Y31780D01*
X148181Y31800D01*
X148112Y31856D01*
X148048Y31917D01*
X148026Y31927D01*
X148007Y31942D01*
X147923Y31970D01*
X147841Y32005D01*
X147817Y32006D01*
X147795Y32013D01*
X147706Y32011D01*
X147617Y32015D01*
X147594Y32008D01*
X147570Y32007D01*
X147488Y31973D01*
X147403Y31946D01*
X147382Y31930D01*
X147363Y31923D01*
X147325Y31889D01*
X147253Y31835D01*
X145235Y29817D01*
X141644Y28329D01*
X137756Y28329D01*
X135408Y29302D01*
X135355Y29314D01*
X135305Y29335D01*
X135246Y29337D01*
X135189Y29350D01*
X135135Y29342D01*
X135081Y29345D01*
X135025Y29327D01*
X134967Y29318D01*
X134919Y29293D01*
X134868Y29276D01*
X134810Y29234D01*
X134769Y29212D01*
X134749Y29188D01*
X134717Y29165D01*
X123257Y17704D01*
X123232Y17669D01*
X123201Y17641D01*
X123169Y17578D01*
X123128Y17520D01*
X123118Y17479D01*
X123098Y17441D01*
X123085Y17351D01*
X123072Y17303D01*
X123075Y17282D01*
X123071Y17256D01*
X123071Y8874D01*
X122326Y8129D01*
X106274Y8129D01*
X105529Y8874D01*
X105529Y12471D01*
X105518Y12536D01*
X105516Y12602D01*
X105498Y12645D01*
X105490Y12692D01*
X105456Y12749D01*
X105431Y12809D01*
X105400Y12844D01*
X105375Y12885D01*
X105324Y12927D01*
X105280Y12975D01*
X105238Y12997D01*
X105201Y13026D01*
X105139Y13047D01*
X105080Y13078D01*
X105026Y13086D01*
X104989Y13098D01*
X104949Y13097D01*
X104895Y13105D01*
X95542Y13105D01*
X88704Y19943D01*
X88669Y19968D01*
X88641Y19999D01*
X88578Y20031D01*
X88520Y20072D01*
X88479Y20082D01*
X88441Y20102D01*
X88351Y20115D01*
X88303Y20128D01*
X88282Y20125D01*
X88256Y20129D01*
X82174Y20129D01*
X81429Y20874D01*
X81429Y29926D01*
X82174Y30671D01*
X92226Y30671D01*
X92971Y29926D01*
X92971Y23844D01*
X92978Y23802D01*
X92976Y23760D01*
X92998Y23693D01*
X93010Y23623D01*
X93032Y23587D01*
X93045Y23546D01*
X93099Y23474D01*
X93125Y23430D01*
X93141Y23417D01*
X93157Y23396D01*
X97672Y18881D01*
X97707Y18856D01*
X97735Y18825D01*
X97798Y18793D01*
X97856Y18752D01*
X97897Y18742D01*
X97935Y18722D01*
X98025Y18709D01*
X98073Y18696D01*
X98094Y18699D01*
X98120Y18695D01*
X104895Y18695D01*
X104960Y18706D01*
X105026Y18708D01*
X105069Y18726D01*
X105116Y18734D01*
X105173Y18768D01*
X105233Y18793D01*
X105268Y18824D01*
X105309Y18849D01*
X105351Y18900D01*
X105399Y18944D01*
X105421Y18986D01*
X105450Y19023D01*
X105471Y19085D01*
X105502Y19144D01*
X105510Y19198D01*
X105522Y19235D01*
X105521Y19275D01*
X105529Y19329D01*
X105529Y22926D01*
X106274Y23671D01*
X121056Y23671D01*
X121098Y23678D01*
X121140Y23676D01*
X121207Y23698D01*
X121277Y23710D01*
X121313Y23732D01*
X121354Y23745D01*
X121426Y23799D01*
X121470Y23825D01*
X121483Y23841D01*
X121504Y23857D01*
X130765Y33117D01*
X130795Y33161D01*
X130834Y33199D01*
X130859Y33253D01*
X130893Y33301D01*
X130906Y33353D01*
X130929Y33403D01*
X130934Y33461D01*
X130949Y33518D01*
X130943Y33572D01*
X130947Y33626D01*
X130930Y33695D01*
X130925Y33741D01*
X130912Y33769D01*
X130902Y33808D01*
X129929Y36156D01*
X129929Y40044D01*
X131417Y43635D01*
X134165Y46383D01*
X137756Y47871D01*
X141644Y47871D01*
X145235Y46383D01*
X147253Y44365D01*
X147326Y44314D01*
X147395Y44258D01*
X147417Y44251D01*
X147437Y44237D01*
X147523Y44215D01*
X147607Y44187D01*
X147631Y44187D01*
X147654Y44181D01*
X147743Y44191D01*
X147832Y44193D01*
X147854Y44202D01*
X147877Y44205D01*
X147957Y44244D01*
X148039Y44277D01*
X148057Y44293D01*
X148078Y44304D01*
X148139Y44369D01*
X148205Y44429D01*
X148216Y44450D01*
X148232Y44467D01*
X148267Y44549D01*
X148308Y44628D01*
X148311Y44655D01*
X148320Y44674D01*
X148322Y44724D01*
X148335Y44814D01*
X148335Y56786D01*
X148319Y56874D01*
X148310Y56962D01*
X148300Y56984D01*
X148296Y57007D01*
X148250Y57084D01*
X148211Y57163D01*
X148194Y57180D01*
X148181Y57200D01*
X148112Y57256D01*
X148048Y57317D01*
X148026Y57327D01*
X148007Y57342D01*
X147923Y57370D01*
X147841Y57405D01*
X147817Y57406D01*
X147795Y57413D01*
X147706Y57411D01*
X147617Y57415D01*
X147594Y57408D01*
X147570Y57407D01*
X147488Y57373D01*
X147403Y57346D01*
X147382Y57330D01*
X147363Y57323D01*
X147325Y57289D01*
X147253Y57235D01*
X145235Y55217D01*
X141644Y53729D01*
X137756Y53729D01*
X134165Y55217D01*
X131417Y57965D01*
X129929Y61556D01*
X129929Y63271D01*
X129918Y63336D01*
X129916Y63402D01*
X129898Y63445D01*
X129890Y63492D01*
X129856Y63549D01*
X129831Y63609D01*
X129800Y63644D01*
X129775Y63685D01*
X129724Y63727D01*
X129680Y63775D01*
X129638Y63797D01*
X129601Y63826D01*
X129539Y63847D01*
X129480Y63878D01*
X129426Y63886D01*
X129389Y63898D01*
X129349Y63897D01*
X129295Y63905D01*
X123705Y63905D01*
X123640Y63894D01*
X123574Y63892D01*
X123531Y63874D01*
X123484Y63866D01*
X123427Y63832D01*
X123367Y63807D01*
X123332Y63776D01*
X123291Y63751D01*
X123249Y63700D01*
X123201Y63656D01*
X123179Y63614D01*
X123150Y63577D01*
X123129Y63515D01*
X123098Y63456D01*
X123090Y63402D01*
X123078Y63365D01*
X123079Y63325D01*
X123071Y63271D01*
X123071Y59674D01*
X122326Y58929D01*
X106274Y58929D01*
X105529Y59674D01*
X105529Y63271D01*
X105518Y63336D01*
X105516Y63402D01*
X105498Y63445D01*
X105490Y63492D01*
X105456Y63549D01*
X105431Y63609D01*
X105400Y63644D01*
X105375Y63685D01*
X105324Y63727D01*
X105280Y63775D01*
X105238Y63797D01*
X105201Y63826D01*
X105139Y63847D01*
X105080Y63878D01*
X105026Y63886D01*
X104989Y63898D01*
X104949Y63897D01*
X104895Y63905D01*
X95542Y63905D01*
X88704Y70743D01*
X88669Y70768D01*
X88641Y70799D01*
X88578Y70831D01*
X88520Y70872D01*
X88479Y70882D01*
X88441Y70902D01*
X88351Y70915D01*
X88303Y70928D01*
X88282Y70925D01*
X88256Y70929D01*
X82174Y70929D01*
X81429Y71674D01*
X81429Y80726D01*
X82174Y81471D01*
X92226Y81471D01*
X92971Y80726D01*
X92971Y74644D01*
X92978Y74603D01*
X92976Y74560D01*
X92998Y74493D01*
X93010Y74423D01*
X93032Y74387D01*
X93045Y74347D01*
X93099Y74274D01*
X93125Y74230D01*
X93141Y74217D01*
X93157Y74196D01*
X97672Y69681D01*
X97707Y69656D01*
X97735Y69625D01*
X97798Y69593D01*
X97856Y69552D01*
X97897Y69542D01*
X97935Y69522D01*
X98025Y69509D01*
X98073Y69496D01*
X98094Y69499D01*
X98120Y69495D01*
X104895Y69495D01*
X104960Y69506D01*
X105026Y69508D01*
X105069Y69526D01*
X105116Y69534D01*
X105173Y69568D01*
X105233Y69593D01*
X105268Y69624D01*
X105309Y69649D01*
X105351Y69700D01*
X105399Y69744D01*
X105421Y69786D01*
X105450Y69823D01*
X105471Y69885D01*
X105502Y69944D01*
X105510Y69998D01*
X105522Y70035D01*
X105521Y70075D01*
X105529Y70129D01*
X105529Y73726D01*
X106274Y74471D01*
X122326Y74471D01*
X123071Y73726D01*
X123071Y70129D01*
X123082Y70064D01*
X123084Y69998D01*
X123102Y69955D01*
X123110Y69908D01*
X123144Y69851D01*
X123169Y69791D01*
X123200Y69756D01*
X123225Y69715D01*
X123276Y69673D01*
X123320Y69625D01*
X123362Y69603D01*
X123399Y69574D01*
X123461Y69553D01*
X123520Y69522D01*
X123574Y69514D01*
X123611Y69502D01*
X123651Y69503D01*
X123705Y69495D01*
X131614Y69495D01*
X131656Y69502D01*
X131698Y69500D01*
X131765Y69522D01*
X131835Y69534D01*
X131871Y69556D01*
X131912Y69569D01*
X131985Y69623D01*
X132028Y69649D01*
X132041Y69665D01*
X132063Y69681D01*
X134165Y71783D01*
X137756Y73271D01*
X141644Y73271D01*
X145235Y71783D01*
X147253Y69765D01*
X147326Y69714D01*
X147395Y69658D01*
X147417Y69651D01*
X147437Y69637D01*
X147523Y69615D01*
X147607Y69587D01*
X147631Y69587D01*
X147654Y69581D01*
X147743Y69591D01*
X147832Y69593D01*
X147854Y69602D01*
X147877Y69605D01*
X147957Y69644D01*
X148039Y69677D01*
X148057Y69693D01*
X148078Y69704D01*
X148139Y69769D01*
X148205Y69829D01*
X148216Y69850D01*
X148232Y69867D01*
X148267Y69949D01*
X148308Y70028D01*
X148311Y70055D01*
X148320Y70074D01*
X148322Y70124D01*
X148335Y70214D01*
X148335Y82186D01*
X148319Y82274D01*
X148310Y82362D01*
X148300Y82384D01*
X148296Y82407D01*
X148250Y82484D01*
X148211Y82563D01*
X148194Y82580D01*
X148181Y82600D01*
X148112Y82656D01*
X148048Y82717D01*
X148026Y82727D01*
X148007Y82742D01*
X147923Y82770D01*
X147841Y82805D01*
X147817Y82806D01*
X147795Y82813D01*
X147706Y82811D01*
X147617Y82815D01*
X147594Y82808D01*
X147570Y82807D01*
X147488Y82773D01*
X147403Y82746D01*
X147382Y82730D01*
X147363Y82723D01*
X147325Y82689D01*
X147253Y82635D01*
X145235Y80617D01*
X141644Y79129D01*
X137756Y79129D01*
X134165Y80617D01*
X132063Y82719D01*
X132028Y82744D01*
X131999Y82775D01*
X131936Y82807D01*
X131878Y82848D01*
X131837Y82858D01*
X131799Y82878D01*
X131710Y82891D01*
X131661Y82904D01*
X131640Y82901D01*
X131614Y82905D01*
X123705Y82905D01*
X123640Y82894D01*
X123574Y82892D01*
X123531Y82874D01*
X123484Y82866D01*
X123427Y82832D01*
X123367Y82807D01*
X123332Y82776D01*
X123291Y82751D01*
X123249Y82700D01*
X123201Y82656D01*
X123179Y82614D01*
X123150Y82577D01*
X123129Y82515D01*
X123098Y82456D01*
X123090Y82402D01*
X123078Y82365D01*
X123079Y82325D01*
X123071Y82271D01*
X123071Y78674D01*
X122326Y77929D01*
X106274Y77929D01*
X105529Y78674D01*
X105529Y92726D01*
X106274Y93471D01*
X122326Y93471D01*
X123071Y92726D01*
X123071Y89129D01*
X123082Y89064D01*
X123084Y88998D01*
X123102Y88955D01*
X123110Y88908D01*
X123144Y88851D01*
X123169Y88791D01*
X123200Y88756D01*
X123225Y88715D01*
X123276Y88673D01*
X123320Y88625D01*
X123362Y88603D01*
X123399Y88574D01*
X123461Y88553D01*
X123520Y88522D01*
X123574Y88514D01*
X123611Y88502D01*
X123651Y88503D01*
X123705Y88495D01*
X129295Y88495D01*
X129360Y88506D01*
X129426Y88508D01*
X129469Y88526D01*
X129516Y88534D01*
X129573Y88568D01*
X129633Y88593D01*
X129668Y88624D01*
X129709Y88649D01*
X129751Y88700D01*
X129799Y88744D01*
X129821Y88786D01*
X129850Y88823D01*
X129871Y88885D01*
X129902Y88944D01*
X129910Y88998D01*
X129922Y89035D01*
X129921Y89075D01*
X129929Y89129D01*
X129929Y90844D01*
X131417Y94435D01*
X133435Y96453D01*
X133486Y96526D01*
X133542Y96595D01*
X133549Y96617D01*
X133563Y96637D01*
X133585Y96723D01*
X133613Y96807D01*
X133613Y96831D01*
X133619Y96854D01*
X133609Y96943D01*
X133607Y97032D01*
X133598Y97054D01*
X133595Y97077D01*
X133556Y97157D01*
X133523Y97239D01*
X133507Y97257D01*
X133496Y97278D01*
X133431Y97339D01*
X133371Y97405D01*
X133350Y97416D01*
X133333Y97432D01*
X133251Y97467D01*
X133172Y97508D01*
X133145Y97511D01*
X133126Y97520D01*
X133076Y97522D01*
X132986Y97535D01*
X19414Y97535D01*
X19326Y97519D01*
X19238Y97510D01*
X19216Y97500D01*
X19193Y97496D01*
X19116Y97450D01*
X19037Y97411D01*
X19020Y97394D01*
X19000Y97381D01*
X18944Y97312D01*
X18883Y97248D01*
X18873Y97226D01*
X18858Y97207D01*
X18830Y97123D01*
X18795Y97041D01*
X18794Y97017D01*
X18787Y96995D01*
X18789Y96906D01*
X18785Y96817D01*
X18792Y96794D01*
X18793Y96770D01*
X18827Y96688D01*
X18854Y96603D01*
X18870Y96582D01*
X18877Y96563D01*
X18911Y96525D01*
X18965Y96453D01*
X20983Y94435D01*
X21956Y92086D01*
X21985Y92041D01*
X22006Y91991D01*
X22045Y91947D01*
X22077Y91897D01*
X22120Y91865D01*
X22157Y91825D01*
X22209Y91798D01*
X22256Y91763D01*
X22308Y91747D01*
X22357Y91722D01*
X22427Y91712D01*
X22472Y91699D01*
X22502Y91701D01*
X22542Y91695D01*
X28695Y91695D01*
X28760Y91706D01*
X28826Y91708D01*
X28869Y91726D01*
X28916Y91734D01*
X28973Y91768D01*
X29033Y91793D01*
X29068Y91824D01*
X29109Y91849D01*
X29151Y91900D01*
X29199Y91944D01*
X29221Y91986D01*
X29250Y92023D01*
X29271Y92085D01*
X29302Y92144D01*
X29310Y92198D01*
X29322Y92235D01*
X29321Y92275D01*
X29329Y92329D01*
X29329Y92726D01*
X30074Y93471D01*
X46126Y93471D01*
X46871Y92726D01*
X46871Y89129D01*
X46882Y89064D01*
X46884Y88998D01*
X46902Y88955D01*
X46910Y88908D01*
X46944Y88851D01*
X46969Y88791D01*
X47000Y88756D01*
X47025Y88715D01*
X47076Y88673D01*
X47120Y88625D01*
X47162Y88603D01*
X47199Y88574D01*
X47261Y88553D01*
X47320Y88522D01*
X47374Y88514D01*
X47411Y88502D01*
X47451Y88503D01*
X47505Y88495D01*
X59795Y88495D01*
X59860Y88506D01*
X59926Y88508D01*
X59969Y88526D01*
X60016Y88534D01*
X60073Y88568D01*
X60133Y88593D01*
X60168Y88624D01*
X60209Y88649D01*
X60251Y88700D01*
X60299Y88744D01*
X60321Y88786D01*
X60350Y88823D01*
X60371Y88885D01*
X60402Y88944D01*
X60410Y88998D01*
X60422Y89035D01*
X60421Y89075D01*
X60429Y89129D01*
X60429Y90226D01*
X61174Y90971D01*
X71226Y90971D01*
X71971Y90226D01*
X71971Y84644D01*
X71978Y84602D01*
X71976Y84560D01*
X71998Y84493D01*
X72010Y84423D01*
X72032Y84387D01*
X72045Y84346D01*
X72099Y84274D01*
X72125Y84230D01*
X72141Y84217D01*
X72157Y84196D01*
X77172Y79181D01*
X78995Y77358D01*
X78995Y43742D01*
X77172Y41920D01*
X77172Y41919D01*
X72157Y36904D01*
X72132Y36869D01*
X72101Y36841D01*
X72069Y36778D01*
X72028Y36720D01*
X72018Y36679D01*
X71998Y36641D01*
X71985Y36551D01*
X71972Y36503D01*
X71975Y36482D01*
X71971Y36456D01*
X71971Y30374D01*
X71226Y29629D01*
X61174Y29629D01*
X60429Y30374D01*
X60429Y31471D01*
X60418Y31536D01*
X60416Y31602D01*
X60398Y31645D01*
X60390Y31692D01*
X60356Y31749D01*
X60331Y31809D01*
X60300Y31844D01*
X60275Y31885D01*
X60224Y31927D01*
X60180Y31975D01*
X60138Y31997D01*
X60101Y32026D01*
X60039Y32047D01*
X59980Y32078D01*
X59926Y32086D01*
X59889Y32098D01*
X59849Y32097D01*
X59795Y32105D01*
X47505Y32105D01*
X47440Y32094D01*
X47374Y32092D01*
X47331Y32074D01*
X47284Y32066D01*
X47227Y32032D01*
X47167Y32007D01*
X47132Y31976D01*
X47091Y31951D01*
X47049Y31900D01*
X47001Y31856D01*
X46979Y31814D01*
X46950Y31777D01*
X46929Y31715D01*
X46898Y31656D01*
X46890Y31602D01*
X46878Y31565D01*
X46879Y31525D01*
X46871Y31471D01*
X46871Y27874D01*
X46126Y27129D01*
X30074Y27129D01*
X29329Y27874D01*
X29329Y41926D01*
X30074Y42671D01*
X46126Y42671D01*
X46871Y41926D01*
X46871Y38329D01*
X46882Y38264D01*
X46884Y38198D01*
X46902Y38155D01*
X46910Y38108D01*
X46944Y38051D01*
X46969Y37991D01*
X47000Y37956D01*
X47025Y37915D01*
X47076Y37873D01*
X47120Y37825D01*
X47162Y37803D01*
X47199Y37774D01*
X47261Y37753D01*
X47320Y37722D01*
X47374Y37714D01*
X47411Y37702D01*
X47451Y37703D01*
X47505Y37695D01*
X59795Y37695D01*
X59860Y37706D01*
X59926Y37708D01*
X59969Y37726D01*
X60016Y37734D01*
X60073Y37768D01*
X60133Y37793D01*
X60168Y37824D01*
X60209Y37849D01*
X60251Y37900D01*
X60299Y37944D01*
X60321Y37986D01*
X60350Y38023D01*
X60371Y38085D01*
X60402Y38144D01*
X60410Y38198D01*
X60422Y38235D01*
X60421Y38275D01*
X60429Y38329D01*
X60429Y39426D01*
X61174Y40171D01*
X67256Y40171D01*
X67298Y40178D01*
X67340Y40176D01*
X67407Y40198D01*
X67477Y40210D01*
X67513Y40232D01*
X67554Y40245D01*
X67626Y40299D01*
X67670Y40325D01*
X67683Y40341D01*
X67704Y40357D01*
X73219Y45872D01*
X73244Y45907D01*
X73275Y45935D01*
X73307Y45998D01*
X73348Y46056D01*
X73358Y46097D01*
X73378Y46135D01*
X73391Y46225D01*
X73404Y46273D01*
X73401Y46294D01*
X73405Y46320D01*
X73405Y74780D01*
X73398Y74821D01*
X73400Y74864D01*
X73378Y74931D01*
X73366Y75001D01*
X73344Y75037D01*
X73331Y75077D01*
X73277Y75150D01*
X73251Y75194D01*
X73235Y75207D01*
X73219Y75228D01*
X68204Y80243D01*
X68169Y80268D01*
X68141Y80299D01*
X68078Y80331D01*
X68020Y80372D01*
X67979Y80382D01*
X67941Y80402D01*
X67851Y80415D01*
X67803Y80428D01*
X67782Y80425D01*
X67756Y80429D01*
X61174Y80429D01*
X60429Y81174D01*
X60429Y82271D01*
X60418Y82336D01*
X60416Y82402D01*
X60398Y82445D01*
X60390Y82492D01*
X60356Y82549D01*
X60331Y82609D01*
X60300Y82644D01*
X60275Y82685D01*
X60224Y82727D01*
X60180Y82775D01*
X60138Y82797D01*
X60101Y82826D01*
X60039Y82847D01*
X59980Y82878D01*
X59926Y82886D01*
X59889Y82898D01*
X59849Y82897D01*
X59795Y82905D01*
X47505Y82905D01*
X47440Y82894D01*
X47374Y82892D01*
X47331Y82874D01*
X47284Y82866D01*
X47227Y82832D01*
X47167Y82807D01*
X47132Y82776D01*
X47091Y82751D01*
X47049Y82700D01*
X47001Y82656D01*
X46979Y82614D01*
X46950Y82577D01*
X46929Y82515D01*
X46898Y82456D01*
X46890Y82402D01*
X46878Y82365D01*
X46879Y82325D01*
X46871Y82271D01*
X46871Y78674D01*
X46126Y77929D01*
X30074Y77929D01*
X29329Y78674D01*
X29329Y85471D01*
X29318Y85536D01*
X29316Y85602D01*
X29298Y85645D01*
X29290Y85692D01*
X29256Y85749D01*
X29231Y85809D01*
X29200Y85844D01*
X29175Y85885D01*
X29124Y85927D01*
X29080Y85975D01*
X29038Y85997D01*
X29001Y86026D01*
X28939Y86047D01*
X28880Y86078D01*
X28826Y86086D01*
X28789Y86098D01*
X28749Y86097D01*
X28695Y86105D01*
X22542Y86105D01*
X22489Y86096D01*
X22434Y86096D01*
X22379Y86076D01*
X22321Y86066D01*
X22274Y86038D01*
X22224Y86020D01*
X22179Y85981D01*
X22128Y85951D01*
X22094Y85909D01*
X22052Y85874D01*
X22016Y85813D01*
X21987Y85777D01*
X21977Y85748D01*
X21956Y85714D01*
X20983Y83365D01*
X18235Y80617D01*
X14644Y79129D01*
X10756Y79129D01*
X7165Y80617D01*
X5147Y82635D01*
X5074Y82686D01*
X5005Y82742D01*
X4983Y82749D01*
X4963Y82763D01*
X4877Y82785D01*
X4793Y82813D01*
X4769Y82813D01*
X4746Y82819D01*
X4657Y82809D01*
X4568Y82807D01*
X4546Y82798D01*
X4523Y82795D01*
X4443Y82756D01*
X4361Y82723D01*
X4343Y82707D01*
X4322Y82696D01*
X4261Y82631D01*
X4195Y82571D01*
X4184Y82550D01*
X4168Y82533D01*
X4133Y82451D01*
X4092Y82372D01*
X4089Y82345D01*
X4080Y82326D01*
X4078Y82276D01*
X4065Y82186D01*
X4065Y70214D01*
X4081Y70126D01*
X4090Y70038D01*
X4100Y70016D01*
X4104Y69993D01*
X4150Y69916D01*
X4189Y69837D01*
X4206Y69820D01*
X4219Y69800D01*
X4288Y69744D01*
X4352Y69683D01*
X4374Y69673D01*
X4393Y69658D01*
X4477Y69630D01*
X4559Y69595D01*
X4583Y69594D01*
X4605Y69587D01*
X4694Y69589D01*
X4783Y69585D01*
X4806Y69592D01*
X4830Y69593D01*
X4912Y69627D01*
X4997Y69654D01*
X5018Y69670D01*
X5037Y69677D01*
X5075Y69711D01*
X5147Y69765D01*
X7165Y71783D01*
X10756Y73271D01*
X14644Y73271D01*
X18235Y71783D01*
X20337Y69681D01*
X20372Y69656D01*
X20401Y69625D01*
X20464Y69593D01*
X20522Y69552D01*
X20563Y69542D01*
X20600Y69522D01*
X20690Y69509D01*
X20739Y69496D01*
X20760Y69499D01*
X20786Y69495D01*
X28695Y69495D01*
X28760Y69506D01*
X28826Y69508D01*
X28869Y69526D01*
X28916Y69534D01*
X28973Y69568D01*
X29033Y69593D01*
X29068Y69624D01*
X29109Y69649D01*
X29151Y69700D01*
X29199Y69744D01*
X29221Y69786D01*
X29250Y69823D01*
X29271Y69885D01*
X29302Y69944D01*
X29310Y69998D01*
X29322Y70035D01*
X29321Y70075D01*
X29329Y70129D01*
X29329Y73726D01*
X30074Y74471D01*
X46126Y74471D01*
X46871Y73726D01*
X46871Y70129D01*
X46882Y70064D01*
X46884Y69998D01*
X46902Y69955D01*
X46910Y69908D01*
X46944Y69851D01*
X46969Y69791D01*
X47000Y69756D01*
X47025Y69715D01*
X47076Y69673D01*
X47120Y69625D01*
X47162Y69603D01*
X47199Y69574D01*
X47261Y69553D01*
X47320Y69522D01*
X47374Y69514D01*
X47411Y69502D01*
X47451Y69503D01*
X47505Y69495D01*
X59795Y69495D01*
X59860Y69506D01*
X59926Y69508D01*
X59969Y69526D01*
X60016Y69534D01*
X60073Y69568D01*
X60133Y69593D01*
X60168Y69624D01*
X60209Y69649D01*
X60251Y69700D01*
X60299Y69744D01*
X60321Y69786D01*
X60350Y69823D01*
X60371Y69885D01*
X60402Y69944D01*
X60410Y69998D01*
X60422Y70035D01*
X60421Y70075D01*
X60429Y70129D01*
X60429Y71226D01*
X61174Y71971D01*
X71226Y71971D01*
X71971Y71226D01*
X71971Y62174D01*
X71226Y61429D01*
X61174Y61429D01*
X60429Y62174D01*
X60429Y63271D01*
X60418Y63336D01*
X60416Y63402D01*
X60398Y63445D01*
X60390Y63492D01*
X60356Y63549D01*
X60331Y63609D01*
X60300Y63644D01*
X60275Y63685D01*
X60224Y63727D01*
X60180Y63775D01*
X60138Y63797D01*
X60101Y63826D01*
X60039Y63847D01*
X59980Y63878D01*
X59926Y63886D01*
X59889Y63898D01*
X59849Y63897D01*
X59795Y63905D01*
X47505Y63905D01*
X47440Y63894D01*
X47374Y63892D01*
X47331Y63874D01*
X47284Y63866D01*
X47227Y63832D01*
X47167Y63807D01*
X47132Y63776D01*
X47091Y63751D01*
X47049Y63700D01*
X47001Y63656D01*
X46979Y63614D01*
X46950Y63577D01*
X46929Y63515D01*
X46898Y63456D01*
X46890Y63402D01*
X46878Y63365D01*
X46879Y63325D01*
X46871Y63271D01*
X46871Y59674D01*
X46126Y58929D01*
X30074Y58929D01*
X29329Y59674D01*
X29329Y63271D01*
X29318Y63336D01*
X29316Y63402D01*
X29298Y63445D01*
X29290Y63492D01*
X29256Y63549D01*
X29231Y63609D01*
X29200Y63644D01*
X29175Y63685D01*
X29124Y63727D01*
X29080Y63775D01*
X29038Y63797D01*
X29001Y63826D01*
X28939Y63847D01*
X28880Y63878D01*
X28826Y63886D01*
X28789Y63898D01*
X28749Y63897D01*
X28695Y63905D01*
X23105Y63905D01*
X23040Y63894D01*
X22974Y63892D01*
X22931Y63874D01*
X22884Y63866D01*
X22827Y63832D01*
X22767Y63807D01*
X22732Y63776D01*
X22691Y63751D01*
X22649Y63700D01*
X22601Y63656D01*
X22579Y63614D01*
X22550Y63577D01*
X22529Y63515D01*
X22498Y63456D01*
X22490Y63402D01*
X22478Y63365D01*
X22479Y63325D01*
X22471Y63271D01*
X22471Y61556D01*
X20983Y57965D01*
X18235Y55217D01*
X14644Y53729D01*
X10756Y53729D01*
X7165Y55217D01*
X5147Y57235D01*
X5074Y57286D01*
X5005Y57342D01*
X4983Y57349D01*
X4963Y57363D01*
X4877Y57385D01*
X4793Y57413D01*
X4769Y57413D01*
X4746Y57419D01*
X4657Y57409D01*
X4568Y57407D01*
X4546Y57398D01*
X4523Y57395D01*
X4443Y57356D01*
X4361Y57323D01*
X4343Y57307D01*
X4322Y57296D01*
X4261Y57231D01*
X4195Y57171D01*
X4184Y57150D01*
X4168Y57133D01*
X4133Y57051D01*
X4092Y56972D01*
X4089Y56945D01*
X4080Y56926D01*
X4078Y56876D01*
X4065Y56786D01*
X4065Y44814D01*
X4081Y44726D01*
X4090Y44638D01*
X4100Y44616D01*
X4104Y44593D01*
X4150Y44516D01*
X4189Y44437D01*
X4206Y44420D01*
X4219Y44400D01*
X4288Y44344D01*
X4352Y44283D01*
X4374Y44273D01*
X4393Y44258D01*
X4477Y44230D01*
X4559Y44195D01*
X4583Y44194D01*
X4605Y44187D01*
X4694Y44189D01*
X4783Y44185D01*
X4806Y44192D01*
X4830Y44193D01*
X4912Y44227D01*
X4997Y44254D01*
X5018Y44270D01*
X5037Y44277D01*
X5075Y44311D01*
X5147Y44365D01*
X7165Y46383D01*
X10756Y47871D01*
X14644Y47871D01*
X18235Y46383D01*
X20983Y43635D01*
X22471Y40044D01*
X22471Y36156D01*
X21498Y33808D01*
X21486Y33755D01*
X21465Y33705D01*
X21463Y33646D01*
X21450Y33589D01*
X21458Y33535D01*
X21455Y33481D01*
X21473Y33425D01*
X21482Y33367D01*
X21507Y33319D01*
X21524Y33268D01*
X21566Y33210D01*
X21588Y33169D01*
X21612Y33149D01*
X21635Y33117D01*
X30896Y23857D01*
X30931Y23832D01*
X30959Y23801D01*
X31022Y23769D01*
X31080Y23728D01*
X31121Y23718D01*
X31159Y23698D01*
X31249Y23685D01*
X31297Y23672D01*
X31318Y23675D01*
X31344Y23671D01*
X46126Y23671D01*
X46871Y22926D01*
X46871Y19329D01*
X46882Y19264D01*
X46884Y19198D01*
X46902Y19155D01*
X46910Y19108D01*
X46944Y19051D01*
X46969Y18991D01*
X47000Y18956D01*
X47025Y18915D01*
X47076Y18873D01*
X47120Y18825D01*
X47162Y18803D01*
X47199Y18774D01*
X47261Y18753D01*
X47320Y18722D01*
X47374Y18714D01*
X47411Y18702D01*
X47451Y18703D01*
X47505Y18695D01*
X59795Y18695D01*
X59860Y18706D01*
X59926Y18708D01*
X59969Y18726D01*
X60016Y18734D01*
X60073Y18768D01*
X60133Y18793D01*
X60168Y18824D01*
X60209Y18849D01*
X60251Y18900D01*
X60299Y18944D01*
X60321Y18986D01*
X60350Y19023D01*
X60371Y19085D01*
X60402Y19144D01*
X60410Y19198D01*
X60422Y19235D01*
X60421Y19275D01*
X60429Y19329D01*
X60429Y20426D01*
X61174Y21171D01*
X71226Y21171D01*
X71971Y20426D01*
X71971Y11374D01*
X71226Y10629D01*
X61174Y10629D01*
X60429Y11374D01*
X60429Y12471D01*
X60418Y12536D01*
X60416Y12602D01*
X60398Y12645D01*
X60390Y12692D01*
X60356Y12749D01*
X60331Y12809D01*
X60300Y12844D01*
X60275Y12885D01*
X60224Y12927D01*
X60180Y12975D01*
X60138Y12997D01*
X60101Y13026D01*
X60039Y13047D01*
X59980Y13078D01*
X59926Y13086D01*
X59889Y13098D01*
X59849Y13097D01*
X59795Y13105D01*
X47505Y13105D01*
X47440Y13094D01*
X47374Y13092D01*
X47331Y13074D01*
X47284Y13066D01*
X47227Y13032D01*
X47167Y13007D01*
X47132Y12976D01*
X47091Y12951D01*
X47049Y12900D01*
X47001Y12856D01*
X46979Y12814D01*
X46950Y12777D01*
X46929Y12715D01*
X46898Y12656D01*
X46890Y12602D01*
X46878Y12565D01*
X46879Y12525D01*
X46871Y12471D01*
X46871Y8874D01*
X46126Y8129D01*
X30074Y8129D01*
X29329Y8874D01*
X29329Y17256D01*
X29322Y17297D01*
X29324Y17340D01*
X29302Y17407D01*
X29290Y17477D01*
X29268Y17513D01*
X29255Y17553D01*
X29201Y17626D01*
X29175Y17670D01*
X29159Y17683D01*
X29143Y17704D01*
X17683Y29165D01*
X17639Y29195D01*
X17601Y29234D01*
X17547Y29259D01*
X17499Y29293D01*
X17446Y29306D01*
X17397Y29329D01*
X17339Y29334D01*
X17282Y29349D01*
X17228Y29343D01*
X17174Y29347D01*
X17105Y29330D01*
X17058Y29325D01*
X17031Y29312D01*
X16992Y29302D01*
X14644Y28329D01*
X10756Y28329D01*
X7165Y29817D01*
X5147Y31835D01*
X5074Y31886D01*
X5005Y31942D01*
X4983Y31949D01*
X4963Y31963D01*
X4877Y31985D01*
X4793Y32013D01*
X4769Y32013D01*
X4746Y32019D01*
X4657Y32009D01*
X4568Y32007D01*
X4546Y31998D01*
X4523Y31995D01*
X4443Y31956D01*
X4361Y31923D01*
X4343Y31907D01*
X4322Y31896D01*
X4261Y31831D01*
X4195Y31771D01*
X4184Y31750D01*
X4168Y31733D01*
X4133Y31651D01*
X4092Y31572D01*
X4089Y31545D01*
X4080Y31526D01*
X4078Y31476D01*
X4065Y31386D01*
X4065Y21210D01*
X4080Y21122D01*
X4090Y21034D01*
X4100Y21012D01*
X4104Y20989D01*
X4150Y20912D01*
X4189Y20833D01*
X4206Y20816D01*
X4219Y20796D01*
X4288Y20740D01*
X4352Y20679D01*
X4374Y20669D01*
X4393Y20654D01*
X4477Y20626D01*
X4559Y20591D01*
X4583Y20590D01*
X4605Y20583D01*
X4694Y20585D01*
X4783Y20581D01*
X4806Y20589D01*
X4830Y20589D01*
X4912Y20623D01*
X4997Y20650D01*
X5018Y20666D01*
X5037Y20673D01*
X5075Y20707D01*
X5147Y20761D01*
X5507Y21121D01*
X6913Y22143D01*
X8462Y22932D01*
X10115Y23469D01*
X11431Y23677D01*
X11431Y13335D01*
X11442Y13270D01*
X11444Y13205D01*
X11462Y13161D01*
X11470Y13114D01*
X11504Y13058D01*
X11529Y12997D01*
X11560Y12962D01*
X11585Y12921D01*
X11636Y12880D01*
X11680Y12831D01*
X11722Y12809D01*
X11759Y12780D01*
X11821Y12759D01*
X11880Y12729D01*
X11934Y12720D01*
X11971Y12708D01*
X12011Y12709D01*
X12065Y12701D01*
X12701Y12701D01*
X12701Y12065D01*
X12713Y12000D01*
X12714Y11934D01*
X12732Y11891D01*
X12741Y11844D01*
X12774Y11787D01*
X12799Y11727D01*
X12831Y11692D01*
X12855Y11651D01*
X12906Y11610D01*
X12950Y11561D01*
X12992Y11539D01*
X13029Y11510D01*
X13091Y11489D01*
X13150Y11458D01*
X13204Y11450D01*
X13241Y11438D01*
X13281Y11439D01*
X13335Y11431D01*
X23677Y11431D01*
X23469Y10115D01*
X22932Y8462D01*
X22143Y6913D01*
X21121Y5507D01*
X20761Y5147D01*
X20711Y5074D01*
X20654Y5005D01*
X20647Y4983D01*
X20633Y4963D01*
X20611Y4877D01*
X20583Y4793D01*
X20583Y4769D01*
X20577Y4746D01*
X20587Y4657D01*
X20589Y4568D01*
X20598Y4547D01*
X20601Y4523D01*
X20640Y4443D01*
X20673Y4361D01*
X20689Y4343D01*
X20700Y4322D01*
X20765Y4261D01*
X20825Y4195D01*
X20846Y4184D01*
X20863Y4168D01*
X20945Y4133D01*
X21024Y4092D01*
X21051Y4089D01*
X21070Y4080D01*
X21120Y4078D01*
X21210Y4065D01*
X131190Y4065D01*
X131278Y4080D01*
G37*
%LPC*%
G36*
X106274Y27129D02*
X106274Y27129D01*
X105529Y27874D01*
X105529Y39456D01*
X105522Y39498D01*
X105524Y39540D01*
X105502Y39607D01*
X105490Y39677D01*
X105468Y39713D01*
X105455Y39754D01*
X105401Y39826D01*
X105375Y39870D01*
X105359Y39883D01*
X105343Y39904D01*
X100178Y45069D01*
X100134Y45100D01*
X100096Y45139D01*
X100042Y45164D01*
X99994Y45198D01*
X99942Y45211D01*
X99893Y45234D01*
X99834Y45239D01*
X99777Y45253D01*
X99723Y45248D01*
X99669Y45252D01*
X99600Y45235D01*
X99554Y45230D01*
X99526Y45217D01*
X99487Y45207D01*
X97774Y44497D01*
X95266Y44497D01*
X92950Y45457D01*
X91177Y47230D01*
X90217Y49546D01*
X90217Y52054D01*
X91177Y54370D01*
X92950Y56143D01*
X95266Y57103D01*
X97774Y57103D01*
X100090Y56143D01*
X101863Y54370D01*
X102823Y52054D01*
X102823Y50592D01*
X102830Y50551D01*
X102828Y50508D01*
X102850Y50441D01*
X102862Y50371D01*
X102884Y50335D01*
X102897Y50295D01*
X102951Y50222D01*
X102977Y50178D01*
X102993Y50165D01*
X103009Y50144D01*
X110296Y42857D01*
X110331Y42832D01*
X110359Y42801D01*
X110422Y42769D01*
X110480Y42728D01*
X110521Y42718D01*
X110559Y42698D01*
X110649Y42685D01*
X110697Y42672D01*
X110718Y42675D01*
X110744Y42671D01*
X122326Y42671D01*
X123071Y41926D01*
X123071Y27874D01*
X122326Y27129D01*
X106274Y27129D01*
G37*
%LPD*%
%LPC*%
G36*
X13969Y13969D02*
X13969Y13969D01*
X13969Y23677D01*
X15285Y23469D01*
X16938Y22932D01*
X18487Y22143D01*
X19893Y21121D01*
X21121Y19893D01*
X22143Y18487D01*
X22932Y16938D01*
X23469Y15285D01*
X23677Y13969D01*
X13969Y13969D01*
G37*
%LPD*%
%LPC*%
G36*
X128723Y13969D02*
X128723Y13969D01*
X128931Y15285D01*
X129468Y16938D01*
X130257Y18487D01*
X131279Y19893D01*
X132507Y21121D01*
X133913Y22143D01*
X135462Y22932D01*
X137115Y23469D01*
X138431Y23677D01*
X138431Y13969D01*
X128723Y13969D01*
G37*
%LPD*%
G36*
X147743Y94991D02*
X147743Y94991D01*
X147832Y94993D01*
X147854Y95002D01*
X147877Y95005D01*
X147957Y95044D01*
X148039Y95077D01*
X148057Y95093D01*
X148078Y95104D01*
X148139Y95169D01*
X148205Y95229D01*
X148216Y95250D01*
X148232Y95267D01*
X148267Y95349D01*
X148308Y95428D01*
X148311Y95455D01*
X148320Y95474D01*
X148322Y95524D01*
X148335Y95614D01*
X148335Y96901D01*
X148324Y96966D01*
X148322Y97032D01*
X148304Y97075D01*
X148296Y97122D01*
X148262Y97179D01*
X148237Y97239D01*
X148206Y97274D01*
X148181Y97315D01*
X148130Y97357D01*
X148086Y97405D01*
X148044Y97427D01*
X148007Y97456D01*
X147945Y97477D01*
X147886Y97508D01*
X147832Y97516D01*
X147795Y97528D01*
X147755Y97527D01*
X147701Y97535D01*
X146414Y97535D01*
X146326Y97519D01*
X146238Y97510D01*
X146216Y97500D01*
X146193Y97496D01*
X146116Y97450D01*
X146037Y97411D01*
X146020Y97394D01*
X146000Y97381D01*
X145944Y97312D01*
X145883Y97248D01*
X145873Y97226D01*
X145858Y97207D01*
X145830Y97123D01*
X145795Y97041D01*
X145794Y97017D01*
X145787Y96995D01*
X145789Y96906D01*
X145785Y96817D01*
X145792Y96794D01*
X145793Y96770D01*
X145827Y96688D01*
X145854Y96603D01*
X145870Y96582D01*
X145877Y96563D01*
X145911Y96525D01*
X145965Y96453D01*
X147253Y95165D01*
X147326Y95115D01*
X147395Y95058D01*
X147417Y95051D01*
X147437Y95037D01*
X147523Y95015D01*
X147607Y94987D01*
X147631Y94987D01*
X147654Y94981D01*
X147743Y94991D01*
G37*
G36*
X4806Y94992D02*
X4806Y94992D01*
X4830Y94993D01*
X4912Y95027D01*
X4997Y95054D01*
X5018Y95070D01*
X5037Y95077D01*
X5075Y95111D01*
X5147Y95165D01*
X6435Y96453D01*
X6485Y96526D01*
X6542Y96595D01*
X6549Y96617D01*
X6563Y96637D01*
X6585Y96723D01*
X6613Y96807D01*
X6613Y96831D01*
X6619Y96854D01*
X6609Y96943D01*
X6607Y97032D01*
X6598Y97054D01*
X6595Y97077D01*
X6556Y97157D01*
X6523Y97239D01*
X6507Y97257D01*
X6496Y97278D01*
X6431Y97339D01*
X6371Y97405D01*
X6350Y97416D01*
X6333Y97432D01*
X6251Y97467D01*
X6172Y97508D01*
X6145Y97511D01*
X6126Y97520D01*
X6076Y97522D01*
X5986Y97535D01*
X4699Y97535D01*
X4634Y97524D01*
X4568Y97522D01*
X4525Y97504D01*
X4478Y97496D01*
X4421Y97462D01*
X4361Y97437D01*
X4326Y97406D01*
X4285Y97381D01*
X4243Y97330D01*
X4195Y97286D01*
X4173Y97244D01*
X4144Y97207D01*
X4123Y97145D01*
X4092Y97086D01*
X4084Y97032D01*
X4072Y96995D01*
X4073Y96955D01*
X4065Y96901D01*
X4065Y95614D01*
X4081Y95526D01*
X4090Y95438D01*
X4100Y95416D01*
X4104Y95393D01*
X4150Y95316D01*
X4189Y95237D01*
X4206Y95220D01*
X4219Y95200D01*
X4288Y95144D01*
X4352Y95083D01*
X4374Y95073D01*
X4393Y95058D01*
X4477Y95030D01*
X4559Y94995D01*
X4583Y94994D01*
X4605Y94987D01*
X4694Y94989D01*
X4783Y94985D01*
X4806Y94992D01*
G37*
D10*
X0Y0D02*
X152400Y0D01*
X152400Y101600D01*
X0Y101600D01*
X0Y0D01*
D11*
X12700Y38100D03*
X12700Y63500D03*
X12700Y88900D03*
X12700Y12700D03*
X139700Y38100D03*
X139700Y12700D03*
X139700Y88900D03*
X139700Y63500D03*
D12*
X66200Y34900D03*
X66200Y15900D03*
X87200Y25400D03*
X66200Y85700D03*
X66200Y66700D03*
X87200Y76200D03*
D13*
X38100Y66700D03*
X38100Y85700D03*
X114300Y66700D03*
X114300Y85700D03*
X114300Y15900D03*
X114300Y34900D03*
X38100Y15900D03*
X38100Y34900D03*
D14*
X38100Y15900D02*
X66200Y15900D01*
X34900Y15900D02*
X12700Y38100D01*
X34900Y15900D02*
X38100Y15900D01*
X34900Y88900D02*
X12700Y88900D01*
X34900Y88900D02*
X38100Y85700D01*
X66200Y85700D01*
X66200Y34900D02*
X38100Y34900D01*
X66200Y34900D02*
X76200Y44900D01*
X76200Y76200D02*
X66700Y85700D01*
X66200Y85700D01*
X76200Y76200D02*
X76200Y44900D01*
X96700Y15900D02*
X114300Y15900D01*
X96700Y15900D02*
X87200Y25400D01*
X117500Y15900D02*
X139700Y38100D01*
X117500Y15900D02*
X114300Y15900D01*
X114300Y34900D02*
X98400Y50800D01*
X96520Y50800D01*
D15*
X96520Y50800D03*
D14*
X136500Y85700D02*
X139700Y88900D01*
X136500Y85700D02*
X114300Y85700D01*
X15900Y66700D02*
X12700Y63500D01*
X15900Y66700D02*
X38100Y66700D01*
X66200Y66700D01*
X87200Y76200D02*
X96700Y66700D01*
X114300Y66700D01*
X136500Y66700D01*
X139700Y63500D01*
M02*
