G04 EAGLE Gerber RS-274X export*
G75*
%MOMM*%
%FSLAX34Y34*%
%LPD*%
%INBottom_Copper*%
%IPPOS*%
%AMOC8*
5,1,8,0,0,1.08239X$1,22.5*%
G01*
%ADD10C,0.000000*%
%ADD11C,1.700000*%
%ADD12C,1.006400*%
%ADD13C,0.304800*%

G36*
X131278Y4080D02*
X131278Y4080D01*
X131366Y4090D01*
X131388Y4100D01*
X131411Y4104D01*
X131488Y4150D01*
X131567Y4189D01*
X131584Y4206D01*
X131604Y4219D01*
X131660Y4288D01*
X131721Y4352D01*
X131731Y4374D01*
X131746Y4393D01*
X131774Y4477D01*
X131809Y4559D01*
X131810Y4583D01*
X131817Y4605D01*
X131815Y4694D01*
X131819Y4783D01*
X131811Y4806D01*
X131811Y4830D01*
X131777Y4912D01*
X131750Y4997D01*
X131734Y5018D01*
X131727Y5037D01*
X131693Y5075D01*
X131639Y5147D01*
X131279Y5507D01*
X130257Y6913D01*
X129468Y8462D01*
X128931Y10115D01*
X128723Y11431D01*
X139065Y11431D01*
X139130Y11442D01*
X139195Y11444D01*
X139239Y11462D01*
X139286Y11470D01*
X139342Y11504D01*
X139403Y11529D01*
X139438Y11560D01*
X139479Y11585D01*
X139520Y11636D01*
X139569Y11680D01*
X139591Y11722D01*
X139620Y11759D01*
X139641Y11821D01*
X139671Y11880D01*
X139680Y11934D01*
X139692Y11971D01*
X139691Y12011D01*
X139699Y12065D01*
X139699Y12701D01*
X140335Y12701D01*
X140400Y12713D01*
X140465Y12714D01*
X140509Y12732D01*
X140556Y12741D01*
X140613Y12774D01*
X140673Y12799D01*
X140708Y12831D01*
X140749Y12855D01*
X140790Y12906D01*
X140839Y12950D01*
X140861Y12992D01*
X140890Y13029D01*
X140911Y13091D01*
X140942Y13150D01*
X140950Y13204D01*
X140962Y13241D01*
X140961Y13281D01*
X140969Y13335D01*
X140969Y23677D01*
X142285Y23469D01*
X143938Y22932D01*
X145487Y22143D01*
X146893Y21121D01*
X147253Y20761D01*
X147326Y20711D01*
X147395Y20654D01*
X147417Y20647D01*
X147437Y20633D01*
X147523Y20611D01*
X147607Y20583D01*
X147631Y20583D01*
X147654Y20577D01*
X147743Y20587D01*
X147832Y20589D01*
X147853Y20598D01*
X147877Y20601D01*
X147957Y20640D01*
X148039Y20673D01*
X148057Y20689D01*
X148078Y20700D01*
X148139Y20765D01*
X148205Y20825D01*
X148216Y20846D01*
X148232Y20863D01*
X148267Y20945D01*
X148308Y21024D01*
X148311Y21051D01*
X148320Y21070D01*
X148322Y21120D01*
X148335Y21210D01*
X148335Y31386D01*
X148322Y31461D01*
X148322Y31468D01*
X148320Y31473D01*
X148319Y31474D01*
X148310Y31562D01*
X148300Y31584D01*
X148296Y31607D01*
X148250Y31684D01*
X148211Y31763D01*
X148194Y31780D01*
X148181Y31800D01*
X148112Y31856D01*
X148048Y31917D01*
X148026Y31927D01*
X148007Y31942D01*
X147923Y31970D01*
X147841Y32005D01*
X147817Y32006D01*
X147795Y32013D01*
X147706Y32011D01*
X147617Y32015D01*
X147594Y32008D01*
X147570Y32007D01*
X147488Y31973D01*
X147403Y31946D01*
X147382Y31930D01*
X147363Y31923D01*
X147325Y31889D01*
X147253Y31835D01*
X145235Y29817D01*
X141644Y28329D01*
X137756Y28329D01*
X134165Y29817D01*
X131417Y32565D01*
X129929Y36156D01*
X129929Y40044D01*
X131417Y43635D01*
X134165Y46383D01*
X137756Y47871D01*
X141644Y47871D01*
X145235Y46383D01*
X147253Y44365D01*
X147326Y44314D01*
X147395Y44258D01*
X147417Y44251D01*
X147437Y44237D01*
X147523Y44215D01*
X147607Y44187D01*
X147631Y44187D01*
X147654Y44181D01*
X147743Y44191D01*
X147832Y44193D01*
X147854Y44202D01*
X147877Y44205D01*
X147957Y44244D01*
X148039Y44277D01*
X148057Y44293D01*
X148078Y44304D01*
X148139Y44369D01*
X148205Y44429D01*
X148216Y44450D01*
X148232Y44467D01*
X148267Y44549D01*
X148308Y44628D01*
X148311Y44655D01*
X148320Y44674D01*
X148322Y44724D01*
X148335Y44814D01*
X148335Y56786D01*
X148319Y56874D01*
X148310Y56962D01*
X148300Y56984D01*
X148296Y57007D01*
X148250Y57084D01*
X148211Y57163D01*
X148194Y57180D01*
X148181Y57200D01*
X148112Y57256D01*
X148048Y57317D01*
X148026Y57327D01*
X148007Y57342D01*
X147923Y57370D01*
X147841Y57405D01*
X147817Y57406D01*
X147795Y57413D01*
X147706Y57411D01*
X147617Y57415D01*
X147594Y57408D01*
X147570Y57407D01*
X147488Y57373D01*
X147403Y57346D01*
X147382Y57330D01*
X147363Y57323D01*
X147325Y57289D01*
X147253Y57235D01*
X145235Y55217D01*
X141644Y53729D01*
X137756Y53729D01*
X134165Y55217D01*
X131417Y57965D01*
X129929Y61556D01*
X129929Y65444D01*
X131417Y69035D01*
X134165Y71783D01*
X137756Y73271D01*
X141644Y73271D01*
X145235Y71783D01*
X147253Y69765D01*
X147326Y69714D01*
X147395Y69658D01*
X147417Y69651D01*
X147437Y69637D01*
X147523Y69615D01*
X147607Y69587D01*
X147631Y69587D01*
X147654Y69581D01*
X147743Y69591D01*
X147832Y69593D01*
X147854Y69602D01*
X147877Y69605D01*
X147957Y69644D01*
X148039Y69677D01*
X148057Y69693D01*
X148078Y69704D01*
X148139Y69769D01*
X148205Y69829D01*
X148216Y69850D01*
X148232Y69867D01*
X148267Y69949D01*
X148308Y70028D01*
X148311Y70055D01*
X148320Y70074D01*
X148322Y70124D01*
X148335Y70214D01*
X148335Y82186D01*
X148319Y82274D01*
X148310Y82362D01*
X148300Y82384D01*
X148296Y82407D01*
X148250Y82484D01*
X148211Y82563D01*
X148194Y82580D01*
X148181Y82600D01*
X148112Y82656D01*
X148048Y82717D01*
X148026Y82727D01*
X148007Y82742D01*
X147923Y82770D01*
X147841Y82805D01*
X147817Y82806D01*
X147795Y82813D01*
X147706Y82811D01*
X147617Y82815D01*
X147594Y82808D01*
X147570Y82807D01*
X147488Y82773D01*
X147403Y82746D01*
X147382Y82730D01*
X147363Y82723D01*
X147325Y82689D01*
X147253Y82635D01*
X145235Y80617D01*
X141644Y79129D01*
X137756Y79129D01*
X134165Y80617D01*
X132676Y82106D01*
X132622Y82144D01*
X132574Y82189D01*
X132530Y82208D01*
X132492Y82234D01*
X132428Y82251D01*
X132367Y82277D01*
X132320Y82279D01*
X132274Y82290D01*
X132209Y82284D01*
X132143Y82287D01*
X132098Y82272D01*
X132051Y82267D01*
X131992Y82238D01*
X131929Y82218D01*
X131885Y82185D01*
X131850Y82168D01*
X131823Y82139D01*
X131779Y82106D01*
X102801Y53129D01*
X102770Y53084D01*
X102732Y53046D01*
X102707Y52993D01*
X102673Y52945D01*
X102660Y52892D01*
X102637Y52843D01*
X102632Y52784D01*
X102617Y52727D01*
X102623Y52673D01*
X102618Y52619D01*
X102636Y52550D01*
X102640Y52504D01*
X102654Y52477D01*
X102664Y52438D01*
X102823Y52054D01*
X102823Y49546D01*
X101863Y47230D01*
X100090Y45457D01*
X97774Y44497D01*
X95266Y44497D01*
X92950Y45457D01*
X91177Y47230D01*
X90217Y49546D01*
X90217Y52054D01*
X91177Y54370D01*
X92950Y56143D01*
X95266Y57103D01*
X97774Y57103D01*
X98158Y56944D01*
X98211Y56932D01*
X98260Y56911D01*
X98319Y56908D01*
X98377Y56896D01*
X98430Y56903D01*
X98485Y56901D01*
X98541Y56919D01*
X98599Y56927D01*
X98646Y56953D01*
X98698Y56970D01*
X98755Y57012D01*
X98796Y57034D01*
X98816Y57057D01*
X98849Y57081D01*
X129743Y87976D01*
X129768Y88011D01*
X129799Y88039D01*
X129822Y88084D01*
X129846Y88114D01*
X129852Y88133D01*
X129872Y88160D01*
X129882Y88201D01*
X129902Y88239D01*
X129912Y88308D01*
X129918Y88326D01*
X129918Y88339D01*
X129928Y88377D01*
X129925Y88398D01*
X129929Y88424D01*
X129929Y90844D01*
X131417Y94435D01*
X133435Y96453D01*
X133486Y96526D01*
X133542Y96595D01*
X133549Y96617D01*
X133563Y96637D01*
X133585Y96723D01*
X133613Y96807D01*
X133613Y96831D01*
X133619Y96854D01*
X133609Y96943D01*
X133607Y97032D01*
X133598Y97054D01*
X133595Y97077D01*
X133556Y97157D01*
X133523Y97239D01*
X133507Y97257D01*
X133496Y97278D01*
X133431Y97339D01*
X133371Y97405D01*
X133350Y97416D01*
X133333Y97432D01*
X133251Y97467D01*
X133172Y97508D01*
X133145Y97511D01*
X133126Y97520D01*
X133076Y97522D01*
X132986Y97535D01*
X19414Y97535D01*
X19326Y97519D01*
X19238Y97510D01*
X19216Y97500D01*
X19193Y97496D01*
X19116Y97450D01*
X19037Y97411D01*
X19020Y97394D01*
X19000Y97381D01*
X18944Y97312D01*
X18883Y97248D01*
X18873Y97226D01*
X18858Y97207D01*
X18830Y97123D01*
X18795Y97041D01*
X18794Y97017D01*
X18787Y96995D01*
X18789Y96906D01*
X18785Y96817D01*
X18792Y96794D01*
X18793Y96770D01*
X18827Y96688D01*
X18854Y96603D01*
X18870Y96582D01*
X18877Y96563D01*
X18911Y96525D01*
X18965Y96453D01*
X20983Y94435D01*
X22471Y90844D01*
X22471Y86956D01*
X20983Y83365D01*
X18235Y80617D01*
X14644Y79129D01*
X10756Y79129D01*
X7165Y80617D01*
X5147Y82635D01*
X5074Y82686D01*
X5005Y82742D01*
X4983Y82749D01*
X4963Y82763D01*
X4877Y82785D01*
X4793Y82813D01*
X4769Y82813D01*
X4746Y82819D01*
X4657Y82809D01*
X4568Y82807D01*
X4546Y82798D01*
X4523Y82795D01*
X4443Y82756D01*
X4361Y82723D01*
X4343Y82707D01*
X4322Y82696D01*
X4261Y82631D01*
X4195Y82571D01*
X4184Y82550D01*
X4168Y82533D01*
X4133Y82451D01*
X4092Y82372D01*
X4089Y82345D01*
X4080Y82326D01*
X4078Y82276D01*
X4065Y82186D01*
X4065Y70214D01*
X4081Y70126D01*
X4090Y70038D01*
X4100Y70016D01*
X4104Y69993D01*
X4150Y69916D01*
X4189Y69837D01*
X4206Y69820D01*
X4219Y69800D01*
X4288Y69744D01*
X4352Y69683D01*
X4374Y69673D01*
X4393Y69658D01*
X4477Y69630D01*
X4559Y69595D01*
X4583Y69594D01*
X4605Y69587D01*
X4694Y69589D01*
X4783Y69585D01*
X4806Y69592D01*
X4830Y69593D01*
X4912Y69627D01*
X4997Y69654D01*
X5018Y69670D01*
X5037Y69677D01*
X5075Y69711D01*
X5147Y69765D01*
X7165Y71783D01*
X10756Y73271D01*
X14644Y73271D01*
X18235Y71783D01*
X20983Y69035D01*
X22471Y65444D01*
X22471Y61556D01*
X20983Y57965D01*
X18235Y55217D01*
X14644Y53729D01*
X10756Y53729D01*
X7165Y55217D01*
X5147Y57235D01*
X5074Y57286D01*
X5005Y57342D01*
X4983Y57349D01*
X4963Y57363D01*
X4877Y57385D01*
X4793Y57413D01*
X4769Y57413D01*
X4746Y57419D01*
X4657Y57409D01*
X4568Y57407D01*
X4546Y57398D01*
X4523Y57395D01*
X4443Y57356D01*
X4361Y57323D01*
X4343Y57307D01*
X4322Y57296D01*
X4261Y57231D01*
X4195Y57171D01*
X4184Y57150D01*
X4168Y57133D01*
X4133Y57051D01*
X4092Y56972D01*
X4089Y56945D01*
X4080Y56926D01*
X4078Y56876D01*
X4065Y56786D01*
X4065Y44814D01*
X4081Y44726D01*
X4090Y44638D01*
X4100Y44616D01*
X4104Y44593D01*
X4150Y44516D01*
X4189Y44437D01*
X4206Y44420D01*
X4219Y44400D01*
X4288Y44344D01*
X4352Y44283D01*
X4374Y44273D01*
X4393Y44258D01*
X4477Y44230D01*
X4559Y44195D01*
X4583Y44194D01*
X4605Y44187D01*
X4694Y44189D01*
X4783Y44185D01*
X4806Y44192D01*
X4830Y44193D01*
X4912Y44227D01*
X4997Y44254D01*
X5018Y44270D01*
X5037Y44277D01*
X5075Y44311D01*
X5147Y44365D01*
X7165Y46383D01*
X10756Y47871D01*
X14644Y47871D01*
X18235Y46383D01*
X20983Y43635D01*
X22471Y40044D01*
X22471Y36156D01*
X20983Y32565D01*
X18235Y29817D01*
X14644Y28329D01*
X10756Y28329D01*
X7165Y29817D01*
X5147Y31835D01*
X5074Y31886D01*
X5005Y31942D01*
X4983Y31949D01*
X4963Y31963D01*
X4877Y31985D01*
X4793Y32013D01*
X4769Y32013D01*
X4746Y32019D01*
X4657Y32009D01*
X4568Y32007D01*
X4546Y31998D01*
X4523Y31995D01*
X4443Y31956D01*
X4361Y31923D01*
X4343Y31907D01*
X4322Y31896D01*
X4261Y31831D01*
X4195Y31771D01*
X4184Y31750D01*
X4168Y31733D01*
X4133Y31651D01*
X4092Y31572D01*
X4089Y31545D01*
X4080Y31526D01*
X4078Y31476D01*
X4065Y31386D01*
X4065Y21210D01*
X4080Y21122D01*
X4090Y21034D01*
X4100Y21012D01*
X4104Y20989D01*
X4150Y20912D01*
X4189Y20833D01*
X4206Y20816D01*
X4219Y20796D01*
X4288Y20740D01*
X4352Y20679D01*
X4374Y20669D01*
X4393Y20654D01*
X4477Y20626D01*
X4559Y20591D01*
X4583Y20590D01*
X4605Y20583D01*
X4694Y20585D01*
X4783Y20581D01*
X4806Y20589D01*
X4830Y20589D01*
X4912Y20623D01*
X4997Y20650D01*
X5018Y20666D01*
X5037Y20673D01*
X5075Y20707D01*
X5147Y20761D01*
X5507Y21121D01*
X6913Y22143D01*
X8462Y22932D01*
X10115Y23469D01*
X11431Y23677D01*
X11431Y13335D01*
X11442Y13270D01*
X11444Y13205D01*
X11462Y13161D01*
X11470Y13114D01*
X11504Y13058D01*
X11529Y12997D01*
X11560Y12962D01*
X11585Y12921D01*
X11636Y12880D01*
X11680Y12831D01*
X11722Y12809D01*
X11759Y12780D01*
X11821Y12759D01*
X11880Y12729D01*
X11934Y12720D01*
X11971Y12708D01*
X12011Y12709D01*
X12065Y12701D01*
X12701Y12701D01*
X12701Y12065D01*
X12713Y12000D01*
X12714Y11934D01*
X12732Y11891D01*
X12741Y11844D01*
X12774Y11787D01*
X12799Y11727D01*
X12831Y11692D01*
X12855Y11651D01*
X12906Y11610D01*
X12950Y11561D01*
X12992Y11539D01*
X13029Y11510D01*
X13091Y11489D01*
X13150Y11458D01*
X13204Y11450D01*
X13241Y11438D01*
X13281Y11439D01*
X13335Y11431D01*
X23677Y11431D01*
X23469Y10115D01*
X22932Y8462D01*
X22143Y6913D01*
X21121Y5507D01*
X20761Y5147D01*
X20711Y5074D01*
X20654Y5005D01*
X20647Y4983D01*
X20633Y4963D01*
X20611Y4877D01*
X20583Y4793D01*
X20583Y4769D01*
X20577Y4746D01*
X20587Y4657D01*
X20589Y4568D01*
X20598Y4547D01*
X20601Y4523D01*
X20640Y4443D01*
X20673Y4361D01*
X20689Y4343D01*
X20700Y4322D01*
X20765Y4261D01*
X20825Y4195D01*
X20846Y4184D01*
X20863Y4168D01*
X20945Y4133D01*
X21024Y4092D01*
X21051Y4089D01*
X21070Y4080D01*
X21120Y4078D01*
X21210Y4065D01*
X131190Y4065D01*
X131278Y4080D01*
G37*
%LPC*%
G36*
X13969Y13969D02*
X13969Y13969D01*
X13969Y23677D01*
X15285Y23469D01*
X16938Y22932D01*
X18487Y22143D01*
X19893Y21121D01*
X21121Y19893D01*
X22143Y18487D01*
X22932Y16938D01*
X23469Y15285D01*
X23677Y13969D01*
X13969Y13969D01*
G37*
%LPD*%
%LPC*%
G36*
X128723Y13969D02*
X128723Y13969D01*
X128931Y15285D01*
X129468Y16938D01*
X130257Y18487D01*
X131279Y19893D01*
X132507Y21121D01*
X133913Y22143D01*
X135462Y22932D01*
X137115Y23469D01*
X138431Y23677D01*
X138431Y13969D01*
X128723Y13969D01*
G37*
%LPD*%
G36*
X147743Y94991D02*
X147743Y94991D01*
X147832Y94993D01*
X147854Y95002D01*
X147877Y95005D01*
X147957Y95044D01*
X148039Y95077D01*
X148057Y95093D01*
X148078Y95104D01*
X148139Y95169D01*
X148205Y95229D01*
X148216Y95250D01*
X148232Y95267D01*
X148267Y95349D01*
X148308Y95428D01*
X148311Y95455D01*
X148320Y95474D01*
X148322Y95524D01*
X148335Y95614D01*
X148335Y96901D01*
X148324Y96966D01*
X148322Y97032D01*
X148304Y97075D01*
X148296Y97122D01*
X148262Y97179D01*
X148237Y97239D01*
X148206Y97274D01*
X148181Y97315D01*
X148130Y97357D01*
X148086Y97405D01*
X148044Y97427D01*
X148007Y97456D01*
X147945Y97477D01*
X147886Y97508D01*
X147832Y97516D01*
X147795Y97528D01*
X147755Y97527D01*
X147701Y97535D01*
X146414Y97535D01*
X146326Y97519D01*
X146238Y97510D01*
X146216Y97500D01*
X146193Y97496D01*
X146116Y97450D01*
X146037Y97411D01*
X146020Y97394D01*
X146000Y97381D01*
X145944Y97312D01*
X145883Y97248D01*
X145873Y97226D01*
X145858Y97207D01*
X145830Y97123D01*
X145795Y97041D01*
X145794Y97017D01*
X145787Y96995D01*
X145789Y96906D01*
X145785Y96817D01*
X145792Y96794D01*
X145793Y96770D01*
X145827Y96688D01*
X145854Y96603D01*
X145870Y96582D01*
X145877Y96563D01*
X145911Y96525D01*
X145965Y96453D01*
X147253Y95165D01*
X147326Y95115D01*
X147395Y95058D01*
X147417Y95051D01*
X147437Y95037D01*
X147523Y95015D01*
X147607Y94987D01*
X147631Y94987D01*
X147654Y94981D01*
X147743Y94991D01*
G37*
G36*
X4806Y94992D02*
X4806Y94992D01*
X4830Y94993D01*
X4912Y95027D01*
X4997Y95054D01*
X5018Y95070D01*
X5037Y95077D01*
X5075Y95111D01*
X5147Y95165D01*
X6435Y96453D01*
X6485Y96526D01*
X6542Y96595D01*
X6549Y96617D01*
X6563Y96637D01*
X6585Y96723D01*
X6613Y96807D01*
X6613Y96831D01*
X6619Y96854D01*
X6609Y96943D01*
X6607Y97032D01*
X6598Y97054D01*
X6595Y97077D01*
X6556Y97157D01*
X6523Y97239D01*
X6507Y97257D01*
X6496Y97278D01*
X6431Y97339D01*
X6371Y97405D01*
X6350Y97416D01*
X6333Y97432D01*
X6251Y97467D01*
X6172Y97508D01*
X6145Y97511D01*
X6126Y97520D01*
X6076Y97522D01*
X5986Y97535D01*
X4699Y97535D01*
X4634Y97524D01*
X4568Y97522D01*
X4525Y97504D01*
X4478Y97496D01*
X4421Y97462D01*
X4361Y97437D01*
X4326Y97406D01*
X4285Y97381D01*
X4243Y97330D01*
X4195Y97286D01*
X4173Y97244D01*
X4144Y97207D01*
X4123Y97145D01*
X4092Y97086D01*
X4084Y97032D01*
X4072Y96995D01*
X4073Y96955D01*
X4065Y96901D01*
X4065Y95614D01*
X4081Y95526D01*
X4090Y95438D01*
X4100Y95416D01*
X4104Y95393D01*
X4150Y95316D01*
X4189Y95237D01*
X4206Y95220D01*
X4219Y95200D01*
X4288Y95144D01*
X4352Y95083D01*
X4374Y95073D01*
X4393Y95058D01*
X4477Y95030D01*
X4559Y94995D01*
X4583Y94994D01*
X4605Y94987D01*
X4694Y94989D01*
X4783Y94985D01*
X4806Y94992D01*
G37*
D10*
X0Y0D02*
X152400Y0D01*
X152400Y101600D01*
X0Y101600D01*
X0Y0D01*
D11*
X12700Y38100D03*
X12700Y63500D03*
X12700Y88900D03*
X12700Y12700D03*
X139700Y38100D03*
X139700Y12700D03*
X139700Y88900D03*
X139700Y63500D03*
D12*
X96520Y50800D03*
D13*
X134620Y88900D01*
X139700Y88900D01*
M02*
