G04 EAGLE Gerber RS-274X export*
G75*
%MOMM*%
%FSLAX34Y34*%
%LPD*%
%INSilk_Top*%
%IPPOS*%
%AMOC8*
5,1,8,0,0,1.08239X$1,22.5*%
G01*
%ADD10C,0.000000*%
%ADD11C,0.127000*%
%ADD12C,0.076200*%
%ADD13C,0.203200*%


D10*
X0Y0D02*
X152400Y0D01*
X152400Y101600D01*
X0Y101600D01*
X0Y0D01*
D11*
X19723Y46355D02*
X19723Y55245D01*
X19723Y51294D02*
X24662Y51294D01*
X24662Y55245D02*
X24662Y46355D01*
X28898Y46355D02*
X28898Y52282D01*
X28651Y54751D02*
X28651Y55245D01*
X29145Y55245D01*
X29145Y54751D01*
X28651Y54751D01*
X33079Y55245D02*
X33079Y46355D01*
X35549Y46355D01*
X35624Y46357D01*
X35699Y46363D01*
X35773Y46372D01*
X35847Y46385D01*
X35920Y46402D01*
X35993Y46423D01*
X36064Y46447D01*
X36133Y46475D01*
X36202Y46506D01*
X36268Y46541D01*
X36333Y46579D01*
X36396Y46621D01*
X36456Y46665D01*
X36514Y46713D01*
X36570Y46763D01*
X36623Y46816D01*
X36673Y46872D01*
X36721Y46930D01*
X36765Y46990D01*
X36807Y47053D01*
X36845Y47118D01*
X36880Y47184D01*
X36911Y47253D01*
X36939Y47322D01*
X36963Y47393D01*
X36984Y47466D01*
X37001Y47539D01*
X37014Y47613D01*
X37023Y47687D01*
X37029Y47762D01*
X37031Y47837D01*
X37030Y47837D02*
X37030Y50800D01*
X37031Y50800D02*
X37029Y50875D01*
X37023Y50950D01*
X37014Y51024D01*
X37001Y51098D01*
X36984Y51171D01*
X36963Y51244D01*
X36939Y51315D01*
X36911Y51384D01*
X36880Y51453D01*
X36845Y51519D01*
X36807Y51584D01*
X36765Y51647D01*
X36721Y51707D01*
X36673Y51765D01*
X36623Y51821D01*
X36570Y51874D01*
X36514Y51924D01*
X36456Y51972D01*
X36396Y52016D01*
X36333Y52058D01*
X36268Y52096D01*
X36202Y52131D01*
X36133Y52162D01*
X36064Y52190D01*
X35993Y52214D01*
X35920Y52235D01*
X35847Y52252D01*
X35773Y52265D01*
X35699Y52274D01*
X35624Y52280D01*
X35549Y52282D01*
X33079Y52282D01*
X40943Y50306D02*
X40943Y48331D01*
X40943Y50306D02*
X40945Y50393D01*
X40951Y50481D01*
X40960Y50568D01*
X40974Y50654D01*
X40991Y50740D01*
X41012Y50824D01*
X41037Y50908D01*
X41066Y50991D01*
X41098Y51072D01*
X41133Y51152D01*
X41172Y51230D01*
X41215Y51307D01*
X41261Y51381D01*
X41310Y51453D01*
X41362Y51523D01*
X41418Y51591D01*
X41476Y51656D01*
X41537Y51719D01*
X41601Y51778D01*
X41668Y51835D01*
X41736Y51889D01*
X41808Y51940D01*
X41881Y51987D01*
X41956Y52032D01*
X42034Y52073D01*
X42113Y52110D01*
X42193Y52144D01*
X42275Y52174D01*
X42358Y52201D01*
X42443Y52224D01*
X42528Y52243D01*
X42614Y52258D01*
X42701Y52270D01*
X42788Y52278D01*
X42875Y52282D01*
X42963Y52282D01*
X43050Y52278D01*
X43137Y52270D01*
X43224Y52258D01*
X43310Y52243D01*
X43395Y52224D01*
X43480Y52201D01*
X43563Y52174D01*
X43645Y52144D01*
X43725Y52110D01*
X43804Y52073D01*
X43882Y52032D01*
X43957Y51987D01*
X44030Y51940D01*
X44102Y51889D01*
X44170Y51835D01*
X44237Y51778D01*
X44301Y51719D01*
X44362Y51656D01*
X44420Y51591D01*
X44476Y51523D01*
X44528Y51453D01*
X44577Y51381D01*
X44623Y51307D01*
X44666Y51230D01*
X44705Y51152D01*
X44740Y51072D01*
X44772Y50991D01*
X44801Y50908D01*
X44826Y50824D01*
X44847Y50740D01*
X44864Y50654D01*
X44878Y50568D01*
X44887Y50481D01*
X44893Y50393D01*
X44895Y50306D01*
X44895Y48331D01*
X44893Y48244D01*
X44887Y48156D01*
X44878Y48069D01*
X44864Y47983D01*
X44847Y47897D01*
X44826Y47813D01*
X44801Y47729D01*
X44772Y47646D01*
X44740Y47565D01*
X44705Y47485D01*
X44666Y47407D01*
X44623Y47330D01*
X44577Y47256D01*
X44528Y47184D01*
X44476Y47114D01*
X44420Y47046D01*
X44362Y46981D01*
X44301Y46918D01*
X44237Y46859D01*
X44170Y46802D01*
X44102Y46748D01*
X44030Y46697D01*
X43957Y46650D01*
X43882Y46605D01*
X43804Y46564D01*
X43725Y46527D01*
X43645Y46493D01*
X43563Y46463D01*
X43480Y46436D01*
X43395Y46413D01*
X43310Y46394D01*
X43224Y46379D01*
X43137Y46367D01*
X43050Y46359D01*
X42963Y46355D01*
X42875Y46355D01*
X42788Y46359D01*
X42701Y46367D01*
X42614Y46379D01*
X42528Y46394D01*
X42443Y46413D01*
X42358Y46436D01*
X42275Y46463D01*
X42193Y46493D01*
X42113Y46527D01*
X42034Y46564D01*
X41956Y46605D01*
X41881Y46650D01*
X41808Y46697D01*
X41736Y46748D01*
X41668Y46802D01*
X41601Y46859D01*
X41537Y46918D01*
X41476Y46981D01*
X41418Y47046D01*
X41362Y47114D01*
X41310Y47184D01*
X41261Y47256D01*
X41215Y47330D01*
X41172Y47407D01*
X41133Y47485D01*
X41098Y47565D01*
X41066Y47646D01*
X41037Y47729D01*
X41012Y47813D01*
X40991Y47897D01*
X40974Y47983D01*
X40960Y48069D01*
X40951Y48156D01*
X40945Y48244D01*
X40943Y48331D01*
X50844Y46355D02*
X50844Y55245D01*
X53313Y55245D02*
X48374Y55245D01*
X57166Y52282D02*
X57166Y46355D01*
X57166Y52282D02*
X60129Y52282D01*
X60129Y51294D01*
X63194Y50306D02*
X63194Y48331D01*
X63193Y50306D02*
X63195Y50393D01*
X63201Y50481D01*
X63210Y50568D01*
X63224Y50654D01*
X63241Y50740D01*
X63262Y50824D01*
X63287Y50908D01*
X63316Y50991D01*
X63348Y51072D01*
X63383Y51152D01*
X63422Y51230D01*
X63465Y51307D01*
X63511Y51381D01*
X63560Y51453D01*
X63612Y51523D01*
X63668Y51591D01*
X63726Y51656D01*
X63787Y51719D01*
X63851Y51778D01*
X63918Y51835D01*
X63986Y51889D01*
X64058Y51940D01*
X64131Y51987D01*
X64206Y52032D01*
X64284Y52073D01*
X64363Y52110D01*
X64443Y52144D01*
X64525Y52174D01*
X64608Y52201D01*
X64693Y52224D01*
X64778Y52243D01*
X64864Y52258D01*
X64951Y52270D01*
X65038Y52278D01*
X65125Y52282D01*
X65213Y52282D01*
X65300Y52278D01*
X65387Y52270D01*
X65474Y52258D01*
X65560Y52243D01*
X65645Y52224D01*
X65730Y52201D01*
X65813Y52174D01*
X65895Y52144D01*
X65975Y52110D01*
X66054Y52073D01*
X66132Y52032D01*
X66207Y51987D01*
X66280Y51940D01*
X66352Y51889D01*
X66420Y51835D01*
X66487Y51778D01*
X66551Y51719D01*
X66612Y51656D01*
X66670Y51591D01*
X66726Y51523D01*
X66778Y51453D01*
X66827Y51381D01*
X66873Y51307D01*
X66916Y51230D01*
X66955Y51152D01*
X66990Y51072D01*
X67022Y50991D01*
X67051Y50908D01*
X67076Y50824D01*
X67097Y50740D01*
X67114Y50654D01*
X67128Y50568D01*
X67137Y50481D01*
X67143Y50393D01*
X67145Y50306D01*
X67145Y48331D01*
X67143Y48244D01*
X67137Y48156D01*
X67128Y48069D01*
X67114Y47983D01*
X67097Y47897D01*
X67076Y47813D01*
X67051Y47729D01*
X67022Y47646D01*
X66990Y47565D01*
X66955Y47485D01*
X66916Y47407D01*
X66873Y47330D01*
X66827Y47256D01*
X66778Y47184D01*
X66726Y47114D01*
X66670Y47046D01*
X66612Y46981D01*
X66551Y46918D01*
X66487Y46859D01*
X66420Y46802D01*
X66352Y46748D01*
X66280Y46697D01*
X66207Y46650D01*
X66132Y46605D01*
X66054Y46564D01*
X65975Y46527D01*
X65895Y46493D01*
X65813Y46463D01*
X65730Y46436D01*
X65645Y46413D01*
X65560Y46394D01*
X65474Y46379D01*
X65387Y46367D01*
X65300Y46359D01*
X65213Y46355D01*
X65125Y46355D01*
X65038Y46359D01*
X64951Y46367D01*
X64864Y46379D01*
X64778Y46394D01*
X64693Y46413D01*
X64608Y46436D01*
X64525Y46463D01*
X64443Y46493D01*
X64363Y46527D01*
X64284Y46564D01*
X64206Y46605D01*
X64131Y46650D01*
X64058Y46697D01*
X63986Y46748D01*
X63918Y46802D01*
X63851Y46859D01*
X63787Y46918D01*
X63726Y46981D01*
X63668Y47046D01*
X63612Y47114D01*
X63560Y47184D01*
X63511Y47256D01*
X63465Y47330D01*
X63422Y47407D01*
X63383Y47485D01*
X63348Y47565D01*
X63316Y47646D01*
X63287Y47729D01*
X63262Y47813D01*
X63241Y47897D01*
X63224Y47983D01*
X63210Y48069D01*
X63201Y48156D01*
X63195Y48244D01*
X63193Y48331D01*
X71423Y46355D02*
X71423Y52282D01*
X73893Y52282D01*
X73968Y52280D01*
X74043Y52274D01*
X74117Y52265D01*
X74191Y52252D01*
X74264Y52235D01*
X74337Y52214D01*
X74408Y52190D01*
X74477Y52162D01*
X74546Y52131D01*
X74612Y52096D01*
X74677Y52058D01*
X74740Y52016D01*
X74800Y51972D01*
X74858Y51924D01*
X74914Y51874D01*
X74967Y51821D01*
X75017Y51765D01*
X75065Y51707D01*
X75109Y51647D01*
X75151Y51584D01*
X75189Y51519D01*
X75224Y51453D01*
X75255Y51384D01*
X75283Y51315D01*
X75307Y51244D01*
X75328Y51171D01*
X75345Y51098D01*
X75358Y51024D01*
X75367Y50950D01*
X75373Y50875D01*
X75375Y50800D01*
X75374Y50800D02*
X75374Y46355D01*
X79495Y46355D02*
X79495Y52282D01*
X79248Y54751D02*
X79248Y55245D01*
X79742Y55245D01*
X79742Y54751D01*
X79248Y54751D01*
X86957Y52282D02*
X83006Y46355D01*
X86957Y46355D02*
X83006Y52282D01*
D12*
X42810Y9398D02*
X42810Y2032D01*
X46083Y2032D01*
X50039Y2032D02*
X52085Y2032D01*
X50039Y2032D02*
X49970Y2034D01*
X49902Y2040D01*
X49833Y2049D01*
X49766Y2063D01*
X49699Y2080D01*
X49633Y2101D01*
X49569Y2125D01*
X49506Y2154D01*
X49445Y2185D01*
X49386Y2220D01*
X49328Y2258D01*
X49273Y2300D01*
X49221Y2344D01*
X49171Y2392D01*
X49123Y2442D01*
X49079Y2494D01*
X49037Y2549D01*
X48999Y2607D01*
X48964Y2666D01*
X48933Y2727D01*
X48904Y2790D01*
X48880Y2854D01*
X48859Y2920D01*
X48842Y2987D01*
X48828Y3054D01*
X48819Y3123D01*
X48813Y3191D01*
X48811Y3260D01*
X48811Y5306D01*
X48813Y5385D01*
X48819Y5464D01*
X48828Y5543D01*
X48841Y5621D01*
X48859Y5698D01*
X48879Y5774D01*
X48904Y5849D01*
X48932Y5923D01*
X48963Y5996D01*
X48999Y6067D01*
X49037Y6136D01*
X49079Y6203D01*
X49124Y6268D01*
X49172Y6331D01*
X49223Y6392D01*
X49277Y6449D01*
X49333Y6505D01*
X49392Y6557D01*
X49454Y6607D01*
X49518Y6653D01*
X49584Y6697D01*
X49652Y6737D01*
X49722Y6773D01*
X49794Y6807D01*
X49868Y6837D01*
X49942Y6863D01*
X50018Y6886D01*
X50095Y6904D01*
X50172Y6920D01*
X50251Y6931D01*
X50329Y6939D01*
X50408Y6943D01*
X50488Y6943D01*
X50567Y6939D01*
X50645Y6931D01*
X50724Y6920D01*
X50801Y6904D01*
X50878Y6886D01*
X50954Y6863D01*
X51028Y6837D01*
X51102Y6807D01*
X51174Y6773D01*
X51244Y6737D01*
X51312Y6697D01*
X51378Y6653D01*
X51442Y6607D01*
X51504Y6557D01*
X51563Y6505D01*
X51619Y6449D01*
X51673Y6392D01*
X51724Y6331D01*
X51772Y6268D01*
X51817Y6203D01*
X51859Y6136D01*
X51897Y6067D01*
X51933Y5996D01*
X51964Y5923D01*
X51992Y5849D01*
X52017Y5774D01*
X52037Y5698D01*
X52055Y5621D01*
X52068Y5543D01*
X52077Y5464D01*
X52083Y5385D01*
X52085Y5306D01*
X52085Y4487D01*
X48811Y4487D01*
X54907Y6943D02*
X56544Y2032D01*
X58181Y6943D01*
X62231Y2032D02*
X64277Y2032D01*
X62231Y2032D02*
X62162Y2034D01*
X62094Y2040D01*
X62025Y2049D01*
X61958Y2063D01*
X61891Y2080D01*
X61825Y2101D01*
X61761Y2125D01*
X61698Y2154D01*
X61637Y2185D01*
X61578Y2220D01*
X61520Y2258D01*
X61465Y2300D01*
X61413Y2344D01*
X61363Y2392D01*
X61315Y2442D01*
X61271Y2494D01*
X61229Y2549D01*
X61191Y2607D01*
X61156Y2666D01*
X61125Y2727D01*
X61096Y2790D01*
X61072Y2854D01*
X61051Y2920D01*
X61034Y2987D01*
X61020Y3054D01*
X61011Y3123D01*
X61005Y3191D01*
X61003Y3260D01*
X61003Y5306D01*
X61005Y5385D01*
X61011Y5464D01*
X61020Y5543D01*
X61033Y5621D01*
X61051Y5698D01*
X61071Y5774D01*
X61096Y5849D01*
X61124Y5923D01*
X61155Y5996D01*
X61191Y6067D01*
X61229Y6136D01*
X61271Y6203D01*
X61316Y6268D01*
X61364Y6331D01*
X61415Y6392D01*
X61469Y6449D01*
X61525Y6505D01*
X61584Y6557D01*
X61646Y6607D01*
X61710Y6653D01*
X61776Y6697D01*
X61844Y6737D01*
X61914Y6773D01*
X61986Y6807D01*
X62060Y6837D01*
X62134Y6863D01*
X62210Y6886D01*
X62287Y6904D01*
X62364Y6920D01*
X62443Y6931D01*
X62521Y6939D01*
X62600Y6943D01*
X62680Y6943D01*
X62759Y6939D01*
X62837Y6931D01*
X62916Y6920D01*
X62993Y6904D01*
X63070Y6886D01*
X63146Y6863D01*
X63220Y6837D01*
X63294Y6807D01*
X63366Y6773D01*
X63436Y6737D01*
X63504Y6697D01*
X63570Y6653D01*
X63634Y6607D01*
X63696Y6557D01*
X63755Y6505D01*
X63811Y6449D01*
X63865Y6392D01*
X63916Y6331D01*
X63964Y6268D01*
X64009Y6203D01*
X64051Y6136D01*
X64089Y6067D01*
X64125Y5996D01*
X64156Y5923D01*
X64184Y5849D01*
X64209Y5774D01*
X64229Y5698D01*
X64247Y5621D01*
X64260Y5543D01*
X64269Y5464D01*
X64275Y5385D01*
X64277Y5306D01*
X64277Y4487D01*
X61003Y4487D01*
X67426Y3260D02*
X67426Y9398D01*
X67426Y3260D02*
X67428Y3191D01*
X67434Y3123D01*
X67443Y3054D01*
X67457Y2987D01*
X67474Y2920D01*
X67495Y2854D01*
X67519Y2790D01*
X67548Y2727D01*
X67579Y2666D01*
X67614Y2607D01*
X67652Y2549D01*
X67694Y2494D01*
X67738Y2442D01*
X67786Y2392D01*
X67836Y2344D01*
X67888Y2300D01*
X67943Y2258D01*
X68001Y2220D01*
X68060Y2185D01*
X68121Y2154D01*
X68184Y2125D01*
X68248Y2101D01*
X68314Y2080D01*
X68381Y2063D01*
X68448Y2049D01*
X68517Y2040D01*
X68585Y2034D01*
X68654Y2032D01*
X77436Y2032D02*
X77514Y2034D01*
X77592Y2039D01*
X77669Y2049D01*
X77746Y2062D01*
X77822Y2078D01*
X77897Y2098D01*
X77971Y2122D01*
X78044Y2149D01*
X78116Y2180D01*
X78186Y2214D01*
X78255Y2251D01*
X78321Y2292D01*
X78386Y2336D01*
X78448Y2382D01*
X78508Y2432D01*
X78566Y2484D01*
X78621Y2539D01*
X78673Y2597D01*
X78723Y2657D01*
X78769Y2719D01*
X78813Y2784D01*
X78854Y2851D01*
X78891Y2919D01*
X78925Y2989D01*
X78956Y3061D01*
X78983Y3134D01*
X79007Y3208D01*
X79027Y3283D01*
X79043Y3359D01*
X79056Y3436D01*
X79066Y3513D01*
X79071Y3591D01*
X79073Y3669D01*
X77436Y2032D02*
X77322Y2034D01*
X77209Y2039D01*
X77095Y2049D01*
X76982Y2062D01*
X76870Y2079D01*
X76758Y2099D01*
X76647Y2123D01*
X76536Y2151D01*
X76427Y2182D01*
X76319Y2217D01*
X76212Y2256D01*
X76106Y2298D01*
X76002Y2343D01*
X75899Y2392D01*
X75798Y2445D01*
X75699Y2500D01*
X75601Y2559D01*
X75506Y2621D01*
X75413Y2686D01*
X75321Y2754D01*
X75233Y2825D01*
X75146Y2899D01*
X75062Y2976D01*
X74981Y3055D01*
X75185Y7761D02*
X75187Y7839D01*
X75192Y7917D01*
X75202Y7994D01*
X75215Y8071D01*
X75231Y8147D01*
X75251Y8222D01*
X75275Y8296D01*
X75302Y8369D01*
X75333Y8441D01*
X75367Y8511D01*
X75404Y8580D01*
X75445Y8646D01*
X75489Y8711D01*
X75535Y8773D01*
X75585Y8833D01*
X75637Y8891D01*
X75692Y8946D01*
X75750Y8998D01*
X75810Y9048D01*
X75872Y9094D01*
X75937Y9138D01*
X76004Y9179D01*
X76072Y9216D01*
X76142Y9250D01*
X76214Y9281D01*
X76287Y9308D01*
X76361Y9332D01*
X76436Y9352D01*
X76512Y9368D01*
X76589Y9381D01*
X76666Y9391D01*
X76744Y9396D01*
X76822Y9398D01*
X76932Y9396D01*
X77041Y9390D01*
X77151Y9380D01*
X77259Y9367D01*
X77368Y9349D01*
X77475Y9328D01*
X77582Y9302D01*
X77688Y9273D01*
X77793Y9241D01*
X77896Y9204D01*
X77998Y9164D01*
X78099Y9120D01*
X78198Y9072D01*
X78295Y9022D01*
X78390Y8967D01*
X78483Y8909D01*
X78574Y8848D01*
X78663Y8784D01*
X76004Y6328D02*
X75937Y6370D01*
X75872Y6414D01*
X75810Y6462D01*
X75750Y6512D01*
X75692Y6565D01*
X75637Y6621D01*
X75585Y6680D01*
X75535Y6740D01*
X75488Y6804D01*
X75445Y6869D01*
X75404Y6936D01*
X75367Y7005D01*
X75333Y7076D01*
X75302Y7148D01*
X75275Y7222D01*
X75251Y7296D01*
X75231Y7372D01*
X75215Y7449D01*
X75202Y7526D01*
X75192Y7604D01*
X75187Y7683D01*
X75185Y7761D01*
X78254Y5101D02*
X78320Y5059D01*
X78385Y5015D01*
X78447Y4968D01*
X78507Y4917D01*
X78565Y4864D01*
X78620Y4808D01*
X78673Y4750D01*
X78722Y4689D01*
X78769Y4626D01*
X78812Y4561D01*
X78853Y4494D01*
X78890Y4425D01*
X78924Y4354D01*
X78955Y4282D01*
X78982Y4208D01*
X79006Y4133D01*
X79026Y4058D01*
X79042Y3981D01*
X79055Y3904D01*
X79065Y3826D01*
X79070Y3747D01*
X79072Y3669D01*
X78254Y5101D02*
X76004Y6329D01*
X82217Y9398D02*
X82217Y2032D01*
X82217Y6943D02*
X84264Y6943D01*
X84333Y6941D01*
X84401Y6935D01*
X84470Y6926D01*
X84537Y6912D01*
X84604Y6895D01*
X84670Y6874D01*
X84734Y6850D01*
X84797Y6821D01*
X84858Y6790D01*
X84917Y6755D01*
X84975Y6717D01*
X85030Y6675D01*
X85082Y6631D01*
X85132Y6583D01*
X85180Y6533D01*
X85224Y6481D01*
X85266Y6426D01*
X85304Y6368D01*
X85339Y6309D01*
X85370Y6248D01*
X85399Y6185D01*
X85423Y6121D01*
X85444Y6055D01*
X85461Y5988D01*
X85475Y5921D01*
X85484Y5852D01*
X85490Y5784D01*
X85492Y5715D01*
X85491Y5715D02*
X85491Y2032D01*
X88731Y2032D02*
X88731Y6943D01*
X88526Y8989D02*
X88526Y9398D01*
X88936Y9398D01*
X88936Y8989D01*
X88526Y8989D01*
X92121Y8170D02*
X92121Y2032D01*
X92120Y8170D02*
X92122Y8239D01*
X92128Y8307D01*
X92137Y8376D01*
X92151Y8443D01*
X92168Y8510D01*
X92189Y8576D01*
X92213Y8640D01*
X92242Y8703D01*
X92273Y8764D01*
X92308Y8823D01*
X92346Y8881D01*
X92388Y8936D01*
X92432Y8988D01*
X92480Y9038D01*
X92530Y9086D01*
X92582Y9130D01*
X92637Y9171D01*
X92695Y9210D01*
X92754Y9245D01*
X92815Y9276D01*
X92878Y9305D01*
X92942Y9329D01*
X93008Y9350D01*
X93075Y9367D01*
X93142Y9381D01*
X93210Y9390D01*
X93279Y9396D01*
X93348Y9398D01*
X93758Y9398D01*
X93758Y6943D02*
X91302Y6943D01*
X95242Y6943D02*
X97697Y6943D01*
X96060Y9398D02*
X96060Y3260D01*
X96062Y3191D01*
X96068Y3123D01*
X96077Y3054D01*
X96091Y2987D01*
X96108Y2920D01*
X96129Y2854D01*
X96153Y2790D01*
X96182Y2727D01*
X96213Y2666D01*
X96248Y2607D01*
X96286Y2549D01*
X96328Y2494D01*
X96372Y2442D01*
X96420Y2392D01*
X96470Y2344D01*
X96522Y2300D01*
X96577Y2258D01*
X96635Y2220D01*
X96694Y2185D01*
X96755Y2154D01*
X96818Y2125D01*
X96882Y2101D01*
X96948Y2080D01*
X97015Y2063D01*
X97082Y2049D01*
X97151Y2040D01*
X97219Y2034D01*
X97288Y2032D01*
X97697Y2032D01*
X101733Y2032D02*
X103779Y2032D01*
X101733Y2032D02*
X101664Y2034D01*
X101596Y2040D01*
X101527Y2049D01*
X101460Y2063D01*
X101393Y2080D01*
X101327Y2101D01*
X101263Y2125D01*
X101200Y2154D01*
X101139Y2185D01*
X101080Y2220D01*
X101022Y2258D01*
X100967Y2300D01*
X100915Y2344D01*
X100865Y2392D01*
X100817Y2442D01*
X100773Y2494D01*
X100731Y2549D01*
X100693Y2607D01*
X100658Y2666D01*
X100627Y2727D01*
X100598Y2790D01*
X100574Y2854D01*
X100553Y2920D01*
X100536Y2987D01*
X100522Y3054D01*
X100513Y3123D01*
X100507Y3191D01*
X100505Y3260D01*
X100505Y5306D01*
X100507Y5385D01*
X100513Y5464D01*
X100522Y5543D01*
X100535Y5621D01*
X100553Y5698D01*
X100573Y5774D01*
X100598Y5849D01*
X100626Y5923D01*
X100657Y5996D01*
X100693Y6067D01*
X100731Y6136D01*
X100773Y6203D01*
X100818Y6268D01*
X100866Y6331D01*
X100917Y6392D01*
X100971Y6449D01*
X101027Y6505D01*
X101086Y6557D01*
X101148Y6607D01*
X101212Y6653D01*
X101278Y6697D01*
X101346Y6737D01*
X101416Y6773D01*
X101488Y6807D01*
X101562Y6837D01*
X101636Y6863D01*
X101712Y6886D01*
X101789Y6904D01*
X101866Y6920D01*
X101945Y6931D01*
X102023Y6939D01*
X102102Y6943D01*
X102182Y6943D01*
X102261Y6939D01*
X102339Y6931D01*
X102418Y6920D01*
X102495Y6904D01*
X102572Y6886D01*
X102648Y6863D01*
X102722Y6837D01*
X102796Y6807D01*
X102868Y6773D01*
X102938Y6737D01*
X103006Y6697D01*
X103072Y6653D01*
X103136Y6607D01*
X103198Y6557D01*
X103257Y6505D01*
X103313Y6449D01*
X103367Y6392D01*
X103418Y6331D01*
X103466Y6268D01*
X103511Y6203D01*
X103553Y6136D01*
X103591Y6067D01*
X103627Y5996D01*
X103658Y5923D01*
X103686Y5849D01*
X103711Y5774D01*
X103731Y5698D01*
X103749Y5621D01*
X103762Y5543D01*
X103771Y5464D01*
X103777Y5385D01*
X103779Y5306D01*
X103779Y4487D01*
X100505Y4487D01*
X107135Y2032D02*
X107135Y6943D01*
X109590Y6943D01*
X109590Y6124D01*
D13*
X83200Y33400D02*
X83200Y39400D01*
X75200Y39400D01*
X83200Y17400D02*
X83200Y11400D01*
X75200Y11400D01*
X83200Y84200D02*
X83200Y90200D01*
X75200Y90200D01*
X83200Y68200D02*
X83200Y62200D01*
X75200Y62200D01*
M02*
