G04 EAGLE Gerber RS-274X export*
G75*
%MOMM*%
%FSLAX34Y34*%
%LPD*%
%INSilk_Bottom*%
%IPPOS*%
%AMOC8*
5,1,8,0,0,1.08239X$1,22.5*%
G01*
%ADD10C,0.000000*%
%ADD11C,0.177800*%


D10*
X0Y0D02*
X152400Y0D01*
X152400Y101600D01*
X0Y101600D01*
X0Y0D01*
D11*
X121124Y14774D02*
X129421Y11317D01*
X121124Y7860D01*
X114913Y14774D02*
X106616Y11317D01*
X114913Y7860D01*
X88472Y13391D02*
X86398Y13391D01*
X86398Y6477D01*
X90546Y6477D01*
X90649Y6479D01*
X90753Y6485D01*
X90856Y6494D01*
X90958Y6508D01*
X91060Y6525D01*
X91161Y6546D01*
X91262Y6571D01*
X91361Y6600D01*
X91460Y6632D01*
X91557Y6668D01*
X91652Y6708D01*
X91746Y6751D01*
X91838Y6798D01*
X91929Y6848D01*
X92018Y6901D01*
X92104Y6958D01*
X92189Y7017D01*
X92271Y7080D01*
X92350Y7146D01*
X92427Y7215D01*
X92502Y7287D01*
X92574Y7362D01*
X92643Y7439D01*
X92709Y7518D01*
X92772Y7600D01*
X92831Y7685D01*
X92888Y7771D01*
X92941Y7860D01*
X92991Y7951D01*
X93038Y8043D01*
X93081Y8137D01*
X93121Y8232D01*
X93157Y8329D01*
X93189Y8428D01*
X93218Y8527D01*
X93243Y8628D01*
X93264Y8729D01*
X93281Y8831D01*
X93295Y8933D01*
X93304Y9036D01*
X93310Y9140D01*
X93312Y9243D01*
X93312Y16157D01*
X93310Y16260D01*
X93304Y16364D01*
X93295Y16467D01*
X93281Y16569D01*
X93264Y16671D01*
X93243Y16772D01*
X93218Y16873D01*
X93189Y16972D01*
X93157Y17071D01*
X93121Y17168D01*
X93081Y17263D01*
X93038Y17357D01*
X92991Y17449D01*
X92941Y17540D01*
X92888Y17629D01*
X92831Y17715D01*
X92772Y17800D01*
X92709Y17882D01*
X92643Y17961D01*
X92574Y18038D01*
X92502Y18113D01*
X92427Y18185D01*
X92350Y18254D01*
X92271Y18320D01*
X92189Y18383D01*
X92104Y18442D01*
X92018Y18499D01*
X91929Y18552D01*
X91838Y18602D01*
X91746Y18649D01*
X91652Y18692D01*
X91557Y18732D01*
X91460Y18768D01*
X91361Y18800D01*
X91262Y18829D01*
X91161Y18854D01*
X91060Y18875D01*
X90958Y18892D01*
X90856Y18906D01*
X90753Y18915D01*
X90649Y18921D01*
X90546Y18923D01*
X86398Y18923D01*
X79657Y18923D02*
X79657Y6477D01*
X72743Y6477D02*
X79657Y18923D01*
X72743Y18923D02*
X72743Y6477D01*
X66002Y6477D02*
X66002Y18923D01*
X62545Y18923D01*
X62429Y18921D01*
X62314Y18915D01*
X62199Y18906D01*
X62084Y18892D01*
X61970Y18875D01*
X61856Y18854D01*
X61744Y18829D01*
X61632Y18800D01*
X61521Y18768D01*
X61411Y18732D01*
X61303Y18692D01*
X61195Y18649D01*
X61090Y18602D01*
X60986Y18551D01*
X60884Y18498D01*
X60783Y18440D01*
X60685Y18380D01*
X60589Y18316D01*
X60494Y18249D01*
X60403Y18179D01*
X60313Y18106D01*
X60226Y18030D01*
X60142Y17951D01*
X60060Y17869D01*
X59981Y17785D01*
X59905Y17698D01*
X59832Y17608D01*
X59762Y17517D01*
X59695Y17422D01*
X59631Y17326D01*
X59571Y17228D01*
X59513Y17127D01*
X59460Y17025D01*
X59409Y16921D01*
X59362Y16816D01*
X59319Y16708D01*
X59279Y16600D01*
X59243Y16490D01*
X59211Y16379D01*
X59182Y16267D01*
X59157Y16155D01*
X59136Y16041D01*
X59119Y15927D01*
X59105Y15812D01*
X59096Y15697D01*
X59090Y15582D01*
X59088Y15466D01*
X59088Y9934D01*
X59090Y9818D01*
X59096Y9703D01*
X59105Y9588D01*
X59119Y9473D01*
X59136Y9359D01*
X59157Y9245D01*
X59182Y9133D01*
X59211Y9021D01*
X59243Y8910D01*
X59279Y8800D01*
X59319Y8692D01*
X59362Y8584D01*
X59409Y8479D01*
X59460Y8375D01*
X59513Y8273D01*
X59571Y8172D01*
X59631Y8074D01*
X59695Y7978D01*
X59762Y7883D01*
X59832Y7792D01*
X59905Y7702D01*
X59981Y7615D01*
X60060Y7531D01*
X60142Y7449D01*
X60226Y7370D01*
X60313Y7294D01*
X60403Y7221D01*
X60494Y7151D01*
X60589Y7084D01*
X60685Y7020D01*
X60783Y6960D01*
X60884Y6902D01*
X60986Y6849D01*
X61090Y6798D01*
X61195Y6751D01*
X61303Y6708D01*
X61411Y6668D01*
X61521Y6632D01*
X61632Y6600D01*
X61744Y6571D01*
X61856Y6546D01*
X61970Y6525D01*
X62084Y6508D01*
X62199Y6494D01*
X62314Y6485D01*
X62429Y6479D01*
X62545Y6477D01*
X66002Y6477D01*
X45784Y11317D02*
X37487Y14774D01*
X37487Y7860D02*
X45784Y11317D01*
X31276Y14774D02*
X22979Y11317D01*
X31276Y7860D01*
X120271Y65574D02*
X128568Y62117D01*
X120271Y58660D01*
X114221Y57277D02*
X110073Y57277D01*
X109970Y57279D01*
X109866Y57285D01*
X109763Y57294D01*
X109661Y57308D01*
X109559Y57325D01*
X109458Y57346D01*
X109357Y57371D01*
X109258Y57400D01*
X109159Y57432D01*
X109062Y57468D01*
X108967Y57508D01*
X108873Y57551D01*
X108781Y57598D01*
X108690Y57648D01*
X108601Y57701D01*
X108515Y57758D01*
X108431Y57817D01*
X108348Y57880D01*
X108269Y57946D01*
X108192Y58015D01*
X108117Y58087D01*
X108045Y58162D01*
X107976Y58239D01*
X107910Y58318D01*
X107848Y58400D01*
X107788Y58485D01*
X107731Y58571D01*
X107678Y58660D01*
X107628Y58750D01*
X107581Y58843D01*
X107538Y58937D01*
X107498Y59032D01*
X107462Y59129D01*
X107430Y59228D01*
X107401Y59327D01*
X107376Y59427D01*
X107355Y59529D01*
X107338Y59631D01*
X107324Y59733D01*
X107315Y59836D01*
X107309Y59940D01*
X107307Y60043D01*
X107307Y61426D01*
X107309Y61529D01*
X107315Y61633D01*
X107324Y61736D01*
X107338Y61838D01*
X107355Y61940D01*
X107376Y62041D01*
X107401Y62142D01*
X107430Y62241D01*
X107462Y62340D01*
X107498Y62437D01*
X107538Y62532D01*
X107581Y62626D01*
X107628Y62718D01*
X107678Y62809D01*
X107731Y62898D01*
X107788Y62984D01*
X107847Y63069D01*
X107910Y63151D01*
X107976Y63230D01*
X108045Y63307D01*
X108117Y63382D01*
X108192Y63454D01*
X108269Y63523D01*
X108348Y63589D01*
X108431Y63652D01*
X108515Y63711D01*
X108601Y63768D01*
X108690Y63821D01*
X108781Y63871D01*
X108873Y63918D01*
X108967Y63961D01*
X109062Y64001D01*
X109159Y64037D01*
X109258Y64069D01*
X109357Y64098D01*
X109458Y64123D01*
X109559Y64144D01*
X109661Y64161D01*
X109763Y64175D01*
X109866Y64184D01*
X109970Y64190D01*
X110073Y64192D01*
X110073Y64191D02*
X114221Y64191D01*
X114221Y69723D01*
X107307Y69723D01*
X102009Y65574D02*
X99243Y57277D01*
X96477Y65574D01*
X91017Y65574D02*
X82719Y62117D01*
X91017Y58660D01*
X69681Y62117D02*
X61383Y65574D01*
X61383Y58660D02*
X69681Y62117D01*
X55334Y57277D02*
X51877Y57277D01*
X51760Y57279D01*
X51644Y57285D01*
X51527Y57295D01*
X51411Y57309D01*
X51296Y57326D01*
X51181Y57348D01*
X51067Y57373D01*
X50954Y57402D01*
X50842Y57436D01*
X50731Y57472D01*
X50622Y57513D01*
X50514Y57557D01*
X50407Y57605D01*
X50302Y57656D01*
X50199Y57711D01*
X50098Y57770D01*
X49999Y57832D01*
X49902Y57897D01*
X49807Y57965D01*
X49715Y58036D01*
X49625Y58111D01*
X49538Y58189D01*
X49453Y58269D01*
X49371Y58352D01*
X49292Y58438D01*
X49216Y58527D01*
X49143Y58618D01*
X49073Y58711D01*
X49007Y58807D01*
X48943Y58905D01*
X48883Y59006D01*
X48826Y59108D01*
X48773Y59212D01*
X48724Y59317D01*
X48678Y59425D01*
X48635Y59533D01*
X48596Y59644D01*
X48562Y59755D01*
X48530Y59867D01*
X48503Y59981D01*
X48479Y60095D01*
X48460Y60211D01*
X48444Y60326D01*
X48432Y60442D01*
X48424Y60559D01*
X48420Y60676D01*
X48420Y60792D01*
X48424Y60909D01*
X48432Y61026D01*
X48444Y61142D01*
X48460Y61257D01*
X48479Y61373D01*
X48503Y61487D01*
X48530Y61601D01*
X48562Y61713D01*
X48596Y61824D01*
X48635Y61935D01*
X48678Y62043D01*
X48724Y62151D01*
X48773Y62256D01*
X48826Y62360D01*
X48883Y62463D01*
X48943Y62563D01*
X49007Y62661D01*
X49073Y62757D01*
X49143Y62850D01*
X49216Y62941D01*
X49292Y63030D01*
X49371Y63116D01*
X49453Y63199D01*
X49538Y63279D01*
X49625Y63357D01*
X49715Y63432D01*
X49807Y63503D01*
X49902Y63571D01*
X49999Y63636D01*
X50098Y63698D01*
X50199Y63757D01*
X50302Y63812D01*
X50407Y63863D01*
X50514Y63911D01*
X50622Y63955D01*
X50731Y63996D01*
X50842Y64032D01*
X50954Y64066D01*
X51067Y64095D01*
X51181Y64120D01*
X51296Y64142D01*
X51411Y64159D01*
X51527Y64173D01*
X51644Y64183D01*
X51760Y64189D01*
X51877Y64191D01*
X51186Y69723D02*
X55334Y69723D01*
X51186Y69723D02*
X51083Y69721D01*
X50979Y69715D01*
X50876Y69706D01*
X50774Y69692D01*
X50672Y69675D01*
X50571Y69654D01*
X50470Y69629D01*
X50371Y69600D01*
X50272Y69568D01*
X50175Y69532D01*
X50080Y69492D01*
X49986Y69449D01*
X49894Y69402D01*
X49803Y69352D01*
X49714Y69299D01*
X49628Y69242D01*
X49543Y69183D01*
X49461Y69120D01*
X49382Y69054D01*
X49305Y68985D01*
X49230Y68913D01*
X49158Y68838D01*
X49089Y68761D01*
X49023Y68682D01*
X48960Y68600D01*
X48901Y68515D01*
X48844Y68429D01*
X48791Y68340D01*
X48741Y68249D01*
X48694Y68157D01*
X48651Y68063D01*
X48611Y67968D01*
X48575Y67871D01*
X48543Y67772D01*
X48514Y67673D01*
X48489Y67572D01*
X48468Y67471D01*
X48451Y67369D01*
X48437Y67267D01*
X48428Y67164D01*
X48422Y67060D01*
X48420Y66957D01*
X48422Y66854D01*
X48428Y66750D01*
X48437Y66647D01*
X48451Y66545D01*
X48468Y66443D01*
X48489Y66342D01*
X48514Y66241D01*
X48543Y66142D01*
X48575Y66043D01*
X48611Y65946D01*
X48651Y65851D01*
X48694Y65757D01*
X48741Y65665D01*
X48791Y65574D01*
X48844Y65485D01*
X48901Y65399D01*
X48960Y65314D01*
X49023Y65232D01*
X49089Y65153D01*
X49158Y65076D01*
X49230Y65001D01*
X49305Y64929D01*
X49382Y64860D01*
X49461Y64794D01*
X49543Y64731D01*
X49628Y64672D01*
X49714Y64615D01*
X49803Y64562D01*
X49894Y64512D01*
X49986Y64465D01*
X50080Y64422D01*
X50175Y64382D01*
X50272Y64346D01*
X50371Y64314D01*
X50470Y64285D01*
X50571Y64260D01*
X50672Y64239D01*
X50774Y64222D01*
X50876Y64208D01*
X50979Y64199D01*
X51083Y64193D01*
X51186Y64191D01*
X53951Y64191D01*
X43121Y65574D02*
X40356Y57277D01*
X37590Y65574D01*
X32129Y65574D02*
X23832Y62117D01*
X32129Y58660D01*
X120608Y82677D02*
X124757Y82677D01*
X120608Y82677D02*
X120505Y82679D01*
X120401Y82685D01*
X120298Y82694D01*
X120196Y82708D01*
X120094Y82725D01*
X119993Y82746D01*
X119892Y82771D01*
X119793Y82800D01*
X119694Y82832D01*
X119597Y82868D01*
X119502Y82908D01*
X119408Y82951D01*
X119316Y82998D01*
X119225Y83048D01*
X119136Y83101D01*
X119050Y83158D01*
X118966Y83217D01*
X118883Y83280D01*
X118804Y83346D01*
X118727Y83415D01*
X118652Y83487D01*
X118580Y83562D01*
X118511Y83639D01*
X118445Y83718D01*
X118383Y83800D01*
X118323Y83885D01*
X118266Y83971D01*
X118213Y84060D01*
X118163Y84150D01*
X118116Y84243D01*
X118073Y84337D01*
X118033Y84432D01*
X117997Y84529D01*
X117965Y84628D01*
X117936Y84727D01*
X117911Y84827D01*
X117890Y84929D01*
X117873Y85031D01*
X117859Y85133D01*
X117850Y85236D01*
X117844Y85340D01*
X117842Y85443D01*
X117843Y85443D02*
X117843Y86826D01*
X117842Y86826D02*
X117844Y86929D01*
X117850Y87033D01*
X117859Y87136D01*
X117873Y87238D01*
X117890Y87340D01*
X117911Y87441D01*
X117936Y87542D01*
X117965Y87641D01*
X117997Y87740D01*
X118033Y87837D01*
X118073Y87932D01*
X118116Y88026D01*
X118163Y88118D01*
X118213Y88209D01*
X118266Y88298D01*
X118323Y88384D01*
X118382Y88469D01*
X118445Y88551D01*
X118511Y88630D01*
X118580Y88707D01*
X118652Y88782D01*
X118727Y88854D01*
X118804Y88923D01*
X118883Y88989D01*
X118966Y89052D01*
X119050Y89111D01*
X119136Y89168D01*
X119225Y89221D01*
X119316Y89271D01*
X119408Y89318D01*
X119502Y89361D01*
X119597Y89401D01*
X119694Y89437D01*
X119793Y89469D01*
X119892Y89498D01*
X119993Y89523D01*
X120094Y89544D01*
X120196Y89561D01*
X120298Y89575D01*
X120401Y89584D01*
X120505Y89590D01*
X120608Y89592D01*
X120608Y89591D02*
X124757Y89591D01*
X124757Y95123D01*
X117843Y95123D01*
X112544Y90974D02*
X109779Y82677D01*
X107013Y90974D01*
X101552Y90974D02*
X93255Y87517D01*
X101552Y84060D01*
X59734Y87517D02*
X51436Y90974D01*
X51436Y84060D02*
X59734Y87517D01*
X45387Y82677D02*
X41930Y82677D01*
X41813Y82679D01*
X41697Y82685D01*
X41580Y82695D01*
X41464Y82709D01*
X41349Y82726D01*
X41234Y82748D01*
X41120Y82773D01*
X41007Y82802D01*
X40895Y82836D01*
X40784Y82872D01*
X40675Y82913D01*
X40567Y82957D01*
X40460Y83005D01*
X40355Y83056D01*
X40252Y83111D01*
X40151Y83170D01*
X40052Y83232D01*
X39955Y83297D01*
X39860Y83365D01*
X39768Y83436D01*
X39678Y83511D01*
X39591Y83589D01*
X39506Y83669D01*
X39424Y83752D01*
X39345Y83838D01*
X39269Y83927D01*
X39196Y84018D01*
X39126Y84111D01*
X39060Y84207D01*
X38996Y84305D01*
X38936Y84406D01*
X38879Y84508D01*
X38826Y84612D01*
X38777Y84717D01*
X38731Y84825D01*
X38688Y84933D01*
X38649Y85044D01*
X38615Y85155D01*
X38583Y85267D01*
X38556Y85381D01*
X38532Y85495D01*
X38513Y85611D01*
X38497Y85726D01*
X38485Y85842D01*
X38477Y85959D01*
X38473Y86076D01*
X38473Y86192D01*
X38477Y86309D01*
X38485Y86426D01*
X38497Y86542D01*
X38513Y86657D01*
X38532Y86773D01*
X38556Y86887D01*
X38583Y87001D01*
X38615Y87113D01*
X38649Y87224D01*
X38688Y87335D01*
X38731Y87443D01*
X38777Y87551D01*
X38826Y87656D01*
X38879Y87760D01*
X38936Y87863D01*
X38996Y87963D01*
X39060Y88061D01*
X39126Y88157D01*
X39196Y88250D01*
X39269Y88341D01*
X39345Y88430D01*
X39424Y88516D01*
X39506Y88599D01*
X39591Y88679D01*
X39678Y88757D01*
X39768Y88832D01*
X39860Y88903D01*
X39955Y88971D01*
X40052Y89036D01*
X40151Y89098D01*
X40252Y89157D01*
X40355Y89212D01*
X40460Y89263D01*
X40567Y89311D01*
X40675Y89355D01*
X40784Y89396D01*
X40895Y89432D01*
X41007Y89466D01*
X41120Y89495D01*
X41234Y89520D01*
X41349Y89542D01*
X41464Y89559D01*
X41580Y89573D01*
X41697Y89583D01*
X41813Y89589D01*
X41930Y89591D01*
X41239Y95123D02*
X45387Y95123D01*
X41239Y95123D02*
X41136Y95121D01*
X41032Y95115D01*
X40929Y95106D01*
X40827Y95092D01*
X40725Y95075D01*
X40624Y95054D01*
X40523Y95029D01*
X40424Y95000D01*
X40325Y94968D01*
X40228Y94932D01*
X40133Y94892D01*
X40039Y94849D01*
X39947Y94802D01*
X39856Y94752D01*
X39767Y94699D01*
X39681Y94642D01*
X39596Y94583D01*
X39514Y94520D01*
X39435Y94454D01*
X39358Y94385D01*
X39283Y94313D01*
X39211Y94238D01*
X39142Y94161D01*
X39076Y94082D01*
X39013Y94000D01*
X38954Y93915D01*
X38897Y93829D01*
X38844Y93740D01*
X38794Y93649D01*
X38747Y93557D01*
X38704Y93463D01*
X38664Y93368D01*
X38628Y93271D01*
X38596Y93172D01*
X38567Y93073D01*
X38542Y92972D01*
X38521Y92871D01*
X38504Y92769D01*
X38490Y92667D01*
X38481Y92564D01*
X38475Y92460D01*
X38473Y92357D01*
X38475Y92254D01*
X38481Y92150D01*
X38490Y92047D01*
X38504Y91945D01*
X38521Y91843D01*
X38542Y91742D01*
X38567Y91641D01*
X38596Y91542D01*
X38628Y91443D01*
X38664Y91346D01*
X38704Y91251D01*
X38747Y91157D01*
X38794Y91065D01*
X38844Y90974D01*
X38897Y90885D01*
X38954Y90799D01*
X39013Y90714D01*
X39076Y90632D01*
X39142Y90553D01*
X39211Y90476D01*
X39283Y90401D01*
X39358Y90329D01*
X39435Y90260D01*
X39514Y90194D01*
X39596Y90131D01*
X39681Y90072D01*
X39767Y90015D01*
X39856Y89962D01*
X39947Y89912D01*
X40039Y89865D01*
X40133Y89822D01*
X40228Y89782D01*
X40325Y89746D01*
X40424Y89714D01*
X40523Y89685D01*
X40624Y89660D01*
X40725Y89639D01*
X40827Y89622D01*
X40929Y89608D01*
X41032Y89599D01*
X41136Y89593D01*
X41239Y89591D01*
X44004Y89591D01*
X33174Y90974D02*
X30409Y82677D01*
X27643Y90974D01*
X120271Y40174D02*
X128568Y36717D01*
X120271Y33260D01*
X114221Y31877D02*
X110073Y31877D01*
X109970Y31879D01*
X109866Y31885D01*
X109763Y31894D01*
X109661Y31908D01*
X109559Y31925D01*
X109458Y31946D01*
X109357Y31971D01*
X109258Y32000D01*
X109159Y32032D01*
X109062Y32068D01*
X108967Y32108D01*
X108873Y32151D01*
X108781Y32198D01*
X108690Y32248D01*
X108601Y32301D01*
X108515Y32358D01*
X108431Y32417D01*
X108348Y32480D01*
X108269Y32546D01*
X108192Y32615D01*
X108117Y32687D01*
X108045Y32762D01*
X107976Y32839D01*
X107910Y32918D01*
X107848Y33000D01*
X107788Y33085D01*
X107731Y33171D01*
X107678Y33260D01*
X107628Y33350D01*
X107581Y33443D01*
X107538Y33537D01*
X107498Y33632D01*
X107462Y33729D01*
X107430Y33828D01*
X107401Y33927D01*
X107376Y34027D01*
X107355Y34129D01*
X107338Y34231D01*
X107324Y34333D01*
X107315Y34436D01*
X107309Y34540D01*
X107307Y34643D01*
X107307Y36026D01*
X107309Y36129D01*
X107315Y36233D01*
X107324Y36336D01*
X107338Y36438D01*
X107355Y36540D01*
X107376Y36641D01*
X107401Y36742D01*
X107430Y36841D01*
X107462Y36940D01*
X107498Y37037D01*
X107538Y37132D01*
X107581Y37226D01*
X107628Y37318D01*
X107678Y37409D01*
X107731Y37498D01*
X107788Y37584D01*
X107847Y37669D01*
X107910Y37751D01*
X107976Y37830D01*
X108045Y37907D01*
X108117Y37982D01*
X108192Y38054D01*
X108269Y38123D01*
X108348Y38189D01*
X108431Y38252D01*
X108515Y38311D01*
X108601Y38368D01*
X108690Y38421D01*
X108781Y38471D01*
X108873Y38518D01*
X108967Y38561D01*
X109062Y38601D01*
X109159Y38637D01*
X109258Y38669D01*
X109357Y38698D01*
X109458Y38723D01*
X109559Y38744D01*
X109661Y38761D01*
X109763Y38775D01*
X109866Y38784D01*
X109970Y38790D01*
X110073Y38792D01*
X110073Y38791D02*
X114221Y38791D01*
X114221Y44323D01*
X107307Y44323D01*
X102009Y40174D02*
X99243Y31877D01*
X96477Y40174D01*
X91017Y40174D02*
X82719Y36717D01*
X91017Y33260D01*
X69681Y36717D02*
X61383Y40174D01*
X61383Y33260D02*
X69681Y36717D01*
X55334Y31877D02*
X51877Y31877D01*
X51760Y31879D01*
X51644Y31885D01*
X51527Y31895D01*
X51411Y31909D01*
X51296Y31926D01*
X51181Y31948D01*
X51067Y31973D01*
X50954Y32002D01*
X50842Y32036D01*
X50731Y32072D01*
X50622Y32113D01*
X50514Y32157D01*
X50407Y32205D01*
X50302Y32256D01*
X50199Y32311D01*
X50098Y32370D01*
X49999Y32432D01*
X49902Y32497D01*
X49807Y32565D01*
X49715Y32636D01*
X49625Y32711D01*
X49538Y32789D01*
X49453Y32869D01*
X49371Y32952D01*
X49292Y33038D01*
X49216Y33127D01*
X49143Y33218D01*
X49073Y33311D01*
X49007Y33407D01*
X48943Y33505D01*
X48883Y33606D01*
X48826Y33708D01*
X48773Y33812D01*
X48724Y33917D01*
X48678Y34025D01*
X48635Y34133D01*
X48596Y34244D01*
X48562Y34355D01*
X48530Y34467D01*
X48503Y34581D01*
X48479Y34695D01*
X48460Y34811D01*
X48444Y34926D01*
X48432Y35042D01*
X48424Y35159D01*
X48420Y35276D01*
X48420Y35392D01*
X48424Y35509D01*
X48432Y35626D01*
X48444Y35742D01*
X48460Y35857D01*
X48479Y35973D01*
X48503Y36087D01*
X48530Y36201D01*
X48562Y36313D01*
X48596Y36424D01*
X48635Y36535D01*
X48678Y36643D01*
X48724Y36751D01*
X48773Y36856D01*
X48826Y36960D01*
X48883Y37063D01*
X48943Y37163D01*
X49007Y37261D01*
X49073Y37357D01*
X49143Y37450D01*
X49216Y37541D01*
X49292Y37630D01*
X49371Y37716D01*
X49453Y37799D01*
X49538Y37879D01*
X49625Y37957D01*
X49715Y38032D01*
X49807Y38103D01*
X49902Y38171D01*
X49999Y38236D01*
X50098Y38298D01*
X50199Y38357D01*
X50302Y38412D01*
X50407Y38463D01*
X50514Y38511D01*
X50622Y38555D01*
X50731Y38596D01*
X50842Y38632D01*
X50954Y38666D01*
X51067Y38695D01*
X51181Y38720D01*
X51296Y38742D01*
X51411Y38759D01*
X51527Y38773D01*
X51644Y38783D01*
X51760Y38789D01*
X51877Y38791D01*
X51186Y44323D02*
X55334Y44323D01*
X51186Y44323D02*
X51083Y44321D01*
X50979Y44315D01*
X50876Y44306D01*
X50774Y44292D01*
X50672Y44275D01*
X50571Y44254D01*
X50470Y44229D01*
X50371Y44200D01*
X50272Y44168D01*
X50175Y44132D01*
X50080Y44092D01*
X49986Y44049D01*
X49894Y44002D01*
X49803Y43952D01*
X49714Y43899D01*
X49628Y43842D01*
X49543Y43783D01*
X49461Y43720D01*
X49382Y43654D01*
X49305Y43585D01*
X49230Y43513D01*
X49158Y43438D01*
X49089Y43361D01*
X49023Y43282D01*
X48960Y43200D01*
X48901Y43115D01*
X48844Y43029D01*
X48791Y42940D01*
X48741Y42849D01*
X48694Y42757D01*
X48651Y42663D01*
X48611Y42568D01*
X48575Y42471D01*
X48543Y42372D01*
X48514Y42273D01*
X48489Y42172D01*
X48468Y42071D01*
X48451Y41969D01*
X48437Y41867D01*
X48428Y41764D01*
X48422Y41660D01*
X48420Y41557D01*
X48422Y41454D01*
X48428Y41350D01*
X48437Y41247D01*
X48451Y41145D01*
X48468Y41043D01*
X48489Y40942D01*
X48514Y40841D01*
X48543Y40742D01*
X48575Y40643D01*
X48611Y40546D01*
X48651Y40451D01*
X48694Y40357D01*
X48741Y40265D01*
X48791Y40174D01*
X48844Y40085D01*
X48901Y39999D01*
X48960Y39914D01*
X49023Y39832D01*
X49089Y39753D01*
X49158Y39676D01*
X49230Y39601D01*
X49305Y39529D01*
X49382Y39460D01*
X49461Y39394D01*
X49543Y39331D01*
X49628Y39272D01*
X49714Y39215D01*
X49803Y39162D01*
X49894Y39112D01*
X49986Y39065D01*
X50080Y39022D01*
X50175Y38982D01*
X50272Y38946D01*
X50371Y38914D01*
X50470Y38885D01*
X50571Y38860D01*
X50672Y38839D01*
X50774Y38822D01*
X50876Y38808D01*
X50979Y38799D01*
X51083Y38793D01*
X51186Y38791D01*
X53951Y38791D01*
X43121Y40174D02*
X40356Y31877D01*
X37590Y40174D01*
X32129Y40174D02*
X23832Y36717D01*
X32129Y33260D01*
M02*
